<svg viewBox="0 0 25.984 26.019" xmlns="http://www.w3.org/2000/svg">
 <g transform="translate(-179.47 -239.4)" fill="#000000" stroke-width="0">
  <path d="m204.38 240.52 0.0731 13.93-9.1659 0.14174c0.32029-0.34289 0.69264-0.97696 0.76776-1.5828l0.0354-12.497 8.2897 8e-3"/>
  <path d="m204.44 264.34-13.93 0.0731-0.14175-9.1659c0.3429 0.32029 0.97697 0.69264 1.5828 0.76776l12.497 0.0354-8e-3 8.2897"/>
  <path d="m180.48 240.47 13.93-0.0731 0.14174 9.1659c-0.34289-0.32029-0.97696-0.69264-1.5828-0.76776l-12.497-0.0354 8e-3-8.2897"/>
  <path d="m180.54 264.41-0.0731-13.93 9.1659-0.14175c-0.32029 0.34289-0.69264 0.97697-0.76776 1.5828l-0.0354 12.497-8.2897-8e-3"/>
 </g>
</svg>
