<svg xmlns="http://www.w3.org/2000/svg" viewBox="30 0 85 78" fill="#000000"><g transform="translate(-277.55 -93.935)"><path d="m344.04 107.57c-0.4583 0.91576-0.9166 1.4652-0.82494 2.1062 0.0917 0.73261 0.82494 1.1905 1.0999 1.9231 0.27498-0.82419 0.82494-1.4652 0.73328-2.1062 0.0917-0.64104-0.82493-1.4652-1.0082-1.9231"/><path d="m356.15 107.57c0.45829 0.91576 0.91659 1.4652 0.82493 2.1062-0.0917 0.73261-0.82493 1.1905-1.0999 1.9231-0.27498-0.82419-0.82494-1.4652-0.73328-2.1062 0-0.64104 0.82494-1.4652 1.0083-1.9231"/><path d="m337.08 107.02c0.4583 0 0.82493-0.3663 0.82493-0.82418s-0.36663-0.82419-0.82493-0.82419-0.82494 0.36631-0.82494 0.82419 0.36664 0.82418 0.82494 0.82418"/><path d="m337.63 108.24c0-0.45788-0.36664-0.82419-0.82494-0.82419s-0.82494 0.36631-0.82494 0.82419 0.36664 0.82418 0.82494 0.82418c0.4583-0.0916 0.82494-0.3663 0.82494-0.82418"/><path d="m338.04 110.2c0-0.45788-0.36664-0.82418-0.82494-0.82418s-0.82494 0.3663-0.82494 0.82418c0 0.45789 0.36664 0.82419 0.82494 0.82419s0.82494-0.3663 0.82494-0.82419"/><path d="m341.65 103.13c0.4583 0 0.82494-0.3663 0.82494-0.82418s-0.36664-0.82419-0.82494-0.82419c-0.45829 0-0.82493 0.36631-0.82493 0.82419s0.36664 0.82418 0.82493 0.82418"/><path d="m339.58 103.8c0.4583 0 0.82494-0.3663 0.82494-0.82418s-0.36664-0.82419-0.82494-0.82419-0.82494 0.36631-0.82494 0.82419 0.36664 0.82418 0.82494 0.82418"/><path d="m338.02 105.19c0.45829 0 0.82493-0.3663 0.82493-0.82418s-0.36664-0.82419-0.82493-0.82419c-0.4583 0-0.82494 0.36631-0.82494 0.82419s0.36664 0.82418 0.82494 0.82418"/><path d="m343.75 103.38c0.45829 0 0.82493-0.3663 0.82493-0.82418s-0.36664-0.82419-0.82493-0.82419c-0.4583 0-0.82494 0.36631-0.82494 0.82419s0.36664 0.82418 0.82494 0.82418"/><path d="m345.82 103.94c0.4583 0 0.82494-0.36631 0.82494-0.82419s-0.36664-0.82418-0.82494-0.82418-0.82494 0.3663-0.82494 0.82418 0.36664 0.82419 0.82494 0.82419"/><path d="m347.67 104.8c0.4583 0 0.82494-0.36631 0.82494-0.82419s-0.36664-0.82418-0.82494-0.82418c-0.45829 0-0.82493 0.3663-0.82493 0.82418s0.36664 0.82419 0.82493 0.82419"/><path d="m362.28 106.19c0 0.45788 0.36664 0.82418 0.82493 0.82418 0.4583 0 0.82494-0.3663 0.82494-0.82418s-0.36664-0.82419-0.82494-0.82419c-0.45829 0-0.82493 0.36631-0.82493 0.82419"/><path d="m363.38 107.42c-0.45829 0-0.82493 0.36631-0.82493 0.82419s0.36664 0.82418 0.82493 0.82418c0.4583 0 0.82494-0.3663 0.82494-0.82418s-0.36664-0.82419-0.82494-0.82419"/><path d="m362.97 109.37c-0.4583 0-0.82494 0.3663-0.82494 0.82418s0.36664 0.82419 0.82494 0.82419c0.45829 0 0.82493-0.36631 0.82493-0.82419s-0.36664-0.82418-0.82493-0.82418"/><path d="m358.63 103.13c0.4583 0 0.82494-0.3663 0.82494-0.82418s-0.36664-0.82419-0.82494-0.82419-0.82494 0.36631-0.82494 0.82419 0.36664 0.82418 0.82494 0.82418"/><path d="m360.6 103.8c0.4583 0 0.82494-0.3663 0.82494-0.82418s-0.36664-0.82419-0.82494-0.82419c-0.45829 0-0.82493 0.36631-0.82493 0.82419s0.36664 0.82418 0.82493 0.82418"/><path d="m362.25 105.19c0.4583 0 0.82493-0.3663 0.82493-0.82418s-0.36663-0.82419-0.82493-0.82419-0.82494 0.36631-0.82494 0.82419 0.36664 0.82418 0.82494 0.82418"/><path d="m356.43 103.38c0.45829 0 0.82493-0.3663 0.82493-0.82418s-0.36664-0.82419-0.82493-0.82419c-0.4583 0-0.82494 0.36631-0.82494 0.82419s0.36664 0.82418 0.82494 0.82418"/><path d="m354.45 103.94c0.4583 0 0.82494-0.36631 0.82494-0.82419s-0.36664-0.82418-0.82494-0.82418-0.82493 0.3663-0.82493 0.82418 0.36663 0.82419 0.82493 0.82419"/><path d="m351.69 103.97c0 0.45788 0.36664 0.82418 0.82494 0.82418s0.82493-0.3663 0.82493-0.82418-0.36663-0.82419-0.82493-0.82419-0.82494 0.36631-0.82494 0.82419"/><path d="m348.74 108.41h0.9166v-3.4799c-0.36664-0.0916-0.64162-0.18315-0.9166-0.27473z"/><path d="m351.53 104.65c-0.27498 0.0916-0.54996 0.27473-0.91659 0.27473v3.4799h0.91659z"/><path d="m349.59 100.76v-2.1063c-1.0083 0.18315-1.8332 1.0073-2.0165 2.1063z"/><path d="m350.6 100.76h2.0165c-0.18332-1.0073-1.0083-1.8315-2.0165-2.1063z"/><path d="m347.63 101.74c0.27498 1.1905 1.2832 2.0147 2.4748 2.0147 1.1916 0 2.2915-0.82419 2.4748-2.0147z"/><path d="m351.54 98.383c-0.54996-0.45788-1.0082-1.0989-1.0999-1.8315 0.64161 0.09158 1.3749 0.64103 1.8332 1.1905v-2.8389c-0.4583 0.54946-1.1916 1.0989-1.8332 1.1905 0.0917-0.64103 0.4583-1.2821 1.0999-2.0147h-2.7498c0.54995 0.73261 1.0082 1.3736 1.0999 2.0147-0.64162-0.09158-1.3749-0.64103-1.8332-1.1905v2.8389c0.4583-0.54946 1.1916-1.0989 1.8332-1.1905-0.0917 0.73261-0.54996 1.3736-1.0999 1.8315z"/><path d="m354.49 154.56c-2.5665-0.64103-5.6829-1.74-8.5243-3.022 0.0917-0.54946-0.0917-1.1905-0.54995-1.74-0.4583-0.54946-1.0083-0.82418-1.6499-0.82418-0.27497 0-0.54995 0.0916-0.82493 0.18315-0.4583-0.36631-0.82494-0.73261-1.1916-1.1905-1.0999-1.2821-1.9248-2.7473-2.5665-4.3957-0.36664-0.91576-0.54996-1.9231-0.73328-2.9304-0.0917 0.82418-1.0999 1.9231-2.6581 1.9231 0-0.18316 0-0.54946-0.18332-0.64104-0.45829 0.45788-1.0999 1.0073-2.4748 0.45788 0.18332 1.0989 0.54995 2.2894 0.91659 3.2967 0.82494 2.2894 2.1082 4.3957 3.6664 6.2272 0.54996 0.54946 1.0999 1.0989 1.6499 1.6484v0.36631c0 0.64103 0.54995 1.5568 1.3749 2.0147 0.64162 0.36631 1.4666 0.27473 2.1082-0.27473 1.2832 0.64104 2.8414 1.2821 4.583 1.74 1.9248 0.54946 3.758 0.82418 5.2246 0.82418 1.2832 0 2.9331-0.54945 4.583-1.6484 0.64162-0.45788 1.2832-0.91576 1.7415-1.2821 0.0917-0.0916 0.0917-0.0916 0.18332-0.18315-1.1916 0.18315-3.0248-0.18316-4.6746-0.54946m-9.4409-3.9378-0.27498-0.18316c-0.4583-0.3663-0.9166-0.3663-1.3749 0-0.18332 0.18316-0.36664 0.36631-0.54996 0.64104l-0.27498 0.27472 0.18332 0.18316c0.54996 0.45788 0.64162 0.91576 0.4583 1.1905-0.0917 0.0916-0.18332 0.18315-0.27498 0.18315-0.27498 0.0916-0.64162 0-1.0083-0.27473l-0.18332-0.0916-0.0917 0.18316c0 0.0916-0.0917 0.0916-0.0917 0.18315 0 0.0916-0.0917 0.0916-0.18332 0.18315-0.18332 0.36631-0.36664 0.73261-0.36664 0.91576v0.18315c0.0917 0.27473 0.27498 0.45789 0.54996 0.54946l0.0917 0.0916c0.27498 0.18315 0.54996 0.3663 0.82494 0.45788-0.4583 0.27473-0.91659 0.27473-1.3749 0.0916-0.73328-0.3663-1.1916-1.1905-1.1916-1.5568 0-0.64103 0.27498-1.3736 0.73328-2.1978l0.0917-0.0916-0.0917-0.0916c-0.18332-0.27473-0.27498-0.45788-0.36664-0.73261 0.27498 0 0.54996 0.0916 0.82494 0.18315h0.0917l0.0917-0.0916c0.27498-0.36631 1.3749-1.4652 2.3832-1.4652 0.45829 0 0.91659 0.27473 1.2832 0.64103 0.27498 0.27473 0.4583 0.64104 0.4583 1.0073 0-0.0916-0.18332-0.18315-0.36664-0.3663m1.7415 4.9451c-0.64162 0-1.0999-0.45788-1.0999-1.0989 0-0.64103 0.45829-1.0989 1.0999-1.0989s1.0999 0.45788 1.0999 1.0989c0 0.64104-0.54995 1.0989-1.0999 1.0989m4.7663 1.4652c-0.54996 0-1.0083-0.45788-1.0083-1.0073 0-0.54946 0.4583-1.0073 1.0083-1.0073 0.54995 0 1.0082 0.45788 1.0082 1.0073 0 0.54945-0.4583 1.0073-1.0082 1.0073"/><path d="m352.93 162.11c-0.18332 0-0.36664 0-0.54996 0.0916v-3.1136c-1.3749 0-2.9331-0.27473-4.4913-0.64104v3.7546c-0.18332-0.0916-0.36664-0.0916-0.54996-0.0916-1.0999 0-1.7415 0.91576-1.7415 1.74 0 0.82418 0.4583 1.5568 0.9166 2.0147 0.18332-0.45788 0.36664-0.82418 0.64162-0.82418 0.54995 0 0.27497 2.6557 1.8332 2.7473-0.0917 0.0916-0.0917 0.27473-0.0917 0.45788 0 0.64103 0.54995 1.1905 1.1916 1.1905s1.1916-0.54946 1.1916-1.1905c0-0.18315 0-0.27473-0.0917-0.45788 1.5582-0.0916 1.2832-2.7473 1.8332-2.7473 0.27498 0 0.45829 0.3663 0.64161 0.82418 0.36664-0.45788 0.82494-1.1905 0.82494-2.0147 0.18332-0.82419-0.4583-1.74-1.5582-1.74m-2.8414 6.7766c-0.36664 0-0.64162-0.27472-0.64162-0.64103 0-0.3663 0.27498-0.64103 0.64162-0.64103s0.64162 0.27473 0.64162 0.64103c0.0917 0.27473-0.18332 0.64103-0.64162 0.64103m3.6664-3.9378c-0.18332-0.3663-0.45829-0.54946-0.73327-0.54946-1.0999 0-0.64162 2.7473-1.9248 2.7473-0.54996 0-0.82494-0.36631-0.82494-0.73261 0-0.36631 0.27498-0.54946 0.27498-0.82419s-0.27498-0.45788-0.54996-0.45788-0.54996 0.0916-0.54996 0.45788c0 0.27473 0.27498 0.45788 0.27498 0.82419 0 0.3663-0.27498 0.73261-0.82493 0.73261-1.2832 0-0.82494-2.7473-1.9248-2.7473-0.27498 0-0.54996 0.18316-0.73328 0.54946-0.18332-0.3663-0.36664-0.82419-0.36664-1.0989 0-0.54946 0.36664-1.1905 1.1916-1.1905 1.3749 0 1.0999 1.9231 1.7415 1.9231 0.27498 0 0.54995-0.18316 0.54995-0.45789 0-0.54945-1.0082-1.0989-1.0082-1.8315s0.73328-1.4652 1.4666-2.1062c0.82494 0.64103 1.4666 1.2821 1.4666 2.1062 0 0.82419-1.0083 1.2821-1.0083 1.8315 0 0.27473 0.18332 0.45789 0.54996 0.45789 0.64161 0 0.36664-1.9231 1.7415-1.9231 0.82494 0 1.1916 0.73261 1.1916 1.1905 0.36664 0.27472 0.27498 0.73261 0 1.0989"/><path d="m389.13 165.84c-0.0917-0.18316-0.27498-0.27473-0.36664-0.18316-3.5747 1.0073-8.066-1.9231-12.374-4.8535-3.6664-2.381-7.0578-4.6704-9.9909-4.6704-1.0999 0-2.0165 0.27472-2.9331 0.64103-1.0083 0.54946-1.8332 1.4652-2.2915 2.6557s-1.0083 2.0147-1.4666 2.6557c-0.45829 0.82419-0.82493 1.3736-0.82493 2.1063 0 0.54945 0.27498 1.0989 0.73328 1.6484 0.45829 0.45788 1.0082 0.82418 1.9248 1.2821 0.18331 0.0916 0.36663 0.18315 0.54995 0.27473 0.73328 0.3663 1.1916 0.54946 1.2832 1.0073-1.4666 0.64103-3.2998 1.1905-5.4079 1.5568-2.3832 0.45788-4.9496 0.64103-7.6994 0.64103s-5.3162-0.18315-7.6994-0.64103c-2.1082-0.3663-3.9414-0.91576-5.4079-1.5568 0.0917-0.64104 0.4583-0.82419 1.2832-1.1905 0.18332-0.0916 0.36664-0.18315 0.54996-0.27473 0.73327-0.36631 1.3749-0.73261 1.8332-1.1905 0.54995-0.45788 0.73327-0.91576 0.73327-1.5568 0-0.73261-0.36664-1.2821-0.82493-2.1063-0.4583-0.64103-0.9166-1.4652-1.4666-2.6557-0.45829-1.1905-1.2832-2.1062-2.2915-2.6557-0.82494-0.45788-1.8332-0.64103-2.8414-0.64103-2.9331 0-6.4162 2.2894-10.083 4.762-4.308 2.8389-8.7993 5.8609-12.374 4.8535-0.18332-0.0916-0.36664 0-0.36664 0.18315-0.0917 0.18315 0 0.36631 0.18332 0.45788 1.0999 0.45788 2.1082 1.2821 3.0248 1.9231 1.2832 1.0073 2.5665 2.0147 3.8497 2.0147 1.2832 0 2.6581-0.36631 4.308-1.2821 1.4666-0.73261 2.9331-1.74 4.3997-2.7473 2.8414-1.9231 5.7746-3.9378 8.616-4.2125-0.27498 0.27473-0.54996 0.54946-0.82493 0.82419-0.82494 0.73261-1.5582 1.3736-1.5582 2.6557 0 1.0073 0.36664 1.7399 0.82494 2.7473 0.18332 0.27473 0.27498 0.64103 0.4583 1.0073 0.27498 0.73261 0.45829 1.2821 0.64161 2.0147 0.0917 0.36631 0.18332 0.73261 0.27498 1.0989 0.18332 0.64103 0.54996 1.9231 2.5665 2.9304 2.3832 1.1905 6.5078 1.8315 12.191 1.8315s9.8076-0.64104 12.191-1.8315c2.0165-1.0073 2.3832-2.2894 2.5665-2.9304 0.0917-0.45788 0.18332-0.82419 0.27498-1.0989 0.18332-0.73261 0.27498-1.2821 0.64161-2.0147 0.18332-0.54946 0.4583-0.91576 0.64162-1.2821 0.4583-0.82418 0.73328-1.4652 0.73328-2.381 0-1.2821-0.73328-1.9231-1.6499-2.7473-0.27498-0.27473-0.54996-0.54946-0.9166-0.82419 2.8414 0.18316 5.7746 2.1978 8.616 4.2125 1.4666 1.0073 2.9331 2.0147 4.3997 2.7473 1.6499 0.91576 3.0248 1.2821 4.308 1.2821 1.3749 0 2.5665-0.91577 3.8497-2.0147 0.91659-0.73261 1.9248-1.4652 3.0248-1.9231 0.0917-0.18315 0.18332-0.3663 0.18332-0.54945"/><path d="m367.42 136.94c-0.36664-0.27473-1.0082-0.91576-1.3749-1.6484-0.4583-0.91576-2.1998-4.3956-2.4748-4.8535-0.27498-0.36631-0.36664-0.73261-0.36664-1.0073 0-0.36631 0.18332-0.64103 0.36664-0.91576 0.18332-0.18315 0.54996-0.54946 0.64162-0.82419 0.0917-0.18315 0.18332-0.27473 0.27498-0.45788-0.64162-1.0989-1.2832-2.0147-2.1998-2.9304-1.0083-1.1905-2.1998-2.1978-3.4831-3.022 0.64162-0.45788 1.3749-1.0989 1.3749-2.1978 0-0.64104-0.27498-1.0989-0.73328-1.5568 0.73328-2.2894 2.0165-5.1283 3.1164-6.3188l-2.2915-1.0073c0.64161 0.91576 0.64161 2.0147 0.54995 2.6557-0.64161-0.45788-1.0999-1.0073-1.2832-1.74-0.0917 0.73261-0.4583 1.8315-0.82494 2.4726 0.64162-0.27473 1.1916-0.45788 1.9248-0.18315-0.36663 0.54945-1.3749 1.3736-2.9331 1.0073-0.82494-0.18315-1.6499-0.64103-1.6499-1.2821 0-0.36631 0.27498-0.82419 0.82493-0.82419 0.54996 0.0916 0.54996 0.82419 0.36664 1.1905 0.64162-0.3663 1.3749-2.2894 0.27498-2.5641-0.82494-0.18315-1.5582 0.91576-1.8332 1.74-0.18332-1.0073-0.54996-2.0147-1.3749-2.0147-1.0999 0.0916-0.73327 2.0147-0.36663 2.5641 0.0917-0.7326 0.45829-1.0989 0.73327-1.0073 0.27498 0 0.64162 0.18315 0.54996 0.82418-0.0917 0.64103-0.9166 1.0073-2.0165 1.0073-1.0082 0-2.6581-0.27473-2.8414-2.1978 0.64162 0.0916 1.6499 0.64104 2.0165 1.1905-0.0917-1.0989-0.0917-1.9231 0-3.1136-0.54995 0.73261-1.3749 1.0989-2.0165 1.1905 0.18332-0.82418 0.9166-1.6484 1.6499-2.1978h-4.2163c0.82493 0.54945 1.4666 1.3736 1.6499 2.1978-0.64162-0.0916-1.4666-0.45788-2.0165-1.1905 0.0917 1.1905 0.0917 2.0147 0 3.1136 0.4583-0.64103 1.3749-1.0989 2.0165-1.1905-0.18332 1.9231-1.9248 2.1978-2.8414 2.1978-1.0082 0-1.9248-0.36631-2.0165-1.0073-0.0917-0.64103 0.27498-0.82418 0.64162-0.82418 0.27498 0 0.73328 0.3663 0.73328 1.0073 0.36663-0.45788 0.73327-2.4726-0.36664-2.5641-0.82494-0.0916-1.2832 0.91576-1.3749 2.0147-0.27497-0.82419-1.0082-2.0147-1.8332-1.74-1.0082 0.27473-0.36664 2.1978 0.27498 2.5641-0.18332-0.3663-0.0917-1.0989 0.36664-1.1905 0.54996-0.0916 0.82494 0.36631 0.82494 0.82419 0 0.64103-0.82494 1.0989-1.6499 1.2821-1.5582 0.36631-2.4748-0.45788-2.9331-1.0073 0.73327-0.27473 1.1916-0.18316 1.9248 0.18315-0.36664-0.64103-0.73328-1.8315-0.82494-2.4726-0.18332 0.73261-0.73327 1.3736-1.2832 1.74-0.0917-0.64103-0.0917-1.74 0.54996-2.6557l-2.2915 1.0073c1.0999 1.1905 2.3832 4.0294 3.1164 6.3188-0.4583 0.36631-0.73327 0.91576-0.73327 1.4652 0 1.0989 0.73327 1.74 1.3749 2.1978-1.2832 0.82418-2.4748 1.8315-3.4831 3.022-1.5582 1.74-2.8414 3.8462-3.6664 6.1356 0.36664 0.3663 1.7415 1.8315 2.0165 2.2894 0.54996 0.73261 0.9166 1.4652 0.9166 2.0147 0 1.0073 0.27498 1.4652 0.82494 2.1978 0.18331 0.18316 0.45829 1.0073 0.45829 1.5568h11.549v12.638c-0.4583 0-0.9166 0.18316-1.2832 0.64104 1.3749 0.54945 2.5665 1.0073 3.8497 1.3736 0.0917-0.82419 0.27498-1.2821 0.73328-1.8315 0 0-1.6499-0.18316-2.5665-0.18316v-12.546h11.274c0 1.7399-0.36664 3.3883-0.9166 4.9451-0.54995 1.6484-1.4666 3.1136-2.5665 4.3956-1.0999 1.2821-2.2915 2.2894-3.758 2.9304-0.18332 0.0916-0.18332 0.27472-0.45829 0.3663-0.18332 0.18315-0.36664 0.54946-0.54996 1.0073-0.18332 0.3663-0.18332 0.64103-0.27498 1.0989 0.54996 0.18315 0.82494 0.27473 1.2832 0.36631 3.9414 1.0073 4.9496 0.73261 5.1329 0.54945 0.91659-0.64103 1.7415-1.4652 2.4748-2.2894 1.5582-1.8315 2.8414-3.8462 3.6664-6.2272 0.91659-2.381 1.3749-4.9451 1.3749-7.6008 0.27498-0.45788 0.27498-0.54945 0.27498-1.0989m-17.507 0.91576h-11.549c0-1.7399 0.36664-3.4799 0.9166-5.1283s1.4666-3.1136 2.5665-4.3956c1.0999-1.2821 2.3831-2.2894 3.758-2.9304 1.3749-0.64103 2.8414-1.0073 4.308-1.0989v13.553zm0.18332-19.231c-3.8497 0-6.5078 1.0989-8.066 2.1978-0.91659-0.54945-1.2832-1.0073-1.2832-1.6484 0-2.1978 6.1412-2.381 9.2576-2.381 3.1164 0 9.2576 0.18316 9.2576 2.381 0 0.64104-0.36664 1.0989-1.2832 1.6484-1.3749-1.0073-4.033-2.1978-7.8827-2.1978m0.54995 19.231v-13.553c1.3749 0.0916 2.7498 0.3663 4.033 1.0073 1.3749 0.73261 2.6581 1.6484 3.758 2.9304 1.0999 1.2821 1.9249 2.7473 2.5665 4.3956 0.54996 1.6484 0.9166 3.3883 0.9166 5.1283-0.0917 0.0916-11.274 0.0916-11.274 0.0916z"/><path d="m360.05 135.65c0.18332 0.0916 0.0917 0.45788-0.0917 0.3663-0.27498-2.0147-1.0083-4.0294-2.1998-5.6777 0.18331-0.0916 0.45829-0.27473 0.45829-0.54946-0.36663 0-0.54995 0.0916-0.73327 0.27473-0.0917-0.0916-0.18332-0.18315-0.27498-0.27473-0.73328-0.91576-1.5582-1.6484-2.4748-2.2894-0.82494-0.54946-1.7415-1.0073-2.7498-1.2821 0-0.18315 0.27498-0.27472 0.4583-0.0916 0-0.36631-0.27498-0.54946-0.4583-0.45788-0.0917 0-0.18332 0.0916-0.18332 0.27473-0.0916-0.0916-0.27497-0.27473-0.54995-0.27473 0 0.27473 0.0917 0.3663 0.18332 0.54945-0.18332 0-0.27498 0.0916-0.27498 0.18316-0.0917 0.18315 0 0.45788 0.36664 0.54945-0.18332-0.18315-0.0917-0.45788 0.0917-0.3663v4.3956c-0.18332-0.0916-0.4583 0-0.73328 0.18316 0.27498 0.27472 0.54996 0.27472 0.73328 0.18315v4.762c-0.27498 0-0.27498-0.27473-0.0917-0.36631-0.36664 0-0.54996 0.36631-0.4583 0.45788 0.0917 0.0916 0.18332 0.18315 0.36664 0.18315-0.0917 0.0916-0.18332 0.27473-0.18332 0.54946 0.18332 0 0.36664-0.0916 0.4583-0.18315 0 0.18315 0.0916 0.27473 0.18331 0.3663 0.18332 0.0916 0.4583-0.0916 0.4583-0.45788-0.0917 0.18316-0.4583 0.0916-0.4583-0.0916h3.2998c-0.0917 0.18315 0 0.45788 0.18332 0.73261 0.18332-0.27473 0.27498-0.54946 0.18332-0.73261h3.6664c0 0.27473-0.27498 0.27473-0.36664 0.0916 0 0.36631 0.36664 0.45788 0.4583 0.45788 0.0917-0.0916 0.18332-0.18315 0.18332-0.3663 0.0917 0.0916 0.27498 0.18315 0.54995 0.18315 0-0.18315-0.0917-0.3663-0.18331-0.45788 0.18331 0 0.27497-0.0916 0.36663-0.18315 0.36664-0.36631 0.18332-0.64103-0.18332-0.64103m-3.1164-5.8609c-0.0917 0.0916-0.18332 0.18316-0.0917 0.27473 0 0.0916 0.0917 0.18315 0.36664 0.18315-0.0917 0.0916-0.18332 0.27473-0.27498 0.45788 0.18332 0 0.36664 0 0.54996-0.0916 0 0.18315 0 0.27473 0.0917 0.3663 0.0917 0.0916 0.18332 0.0916 0.27498 0 0.82493 1.3736 1.4666 2.9304 1.6499 4.5788-0.0917-0.0916-0.27498-0.0916-0.4583-0.0916 0 0.27473 0.0917 0.36631 0.18332 0.54946h-2.8414c0-0.18315-0.0917-0.3663-0.18332-0.3663-0.0917 0-0.27498 0-0.36663 0.0916 0-0.18315-0.0917-0.3663-0.18332-0.45788-0.18332 0.18315-0.18332 0.36631-0.18332 0.45788-0.0917-0.18315-0.27498-0.18315-0.36664-0.0916-0.0917 0-0.18332 0.18315-0.18332 0.3663h-2.3832c0.0917-0.0916 0.18332-0.27473 0.18332-0.45788-0.18332 0-0.36664 0.0916-0.4583 0.18315v-3.8462c0.18332 0 0.36664-0.0916 0.36664-0.18315 0-0.0916 0-0.27473-0.0917-0.3663 0.18332 0 0.36664-0.0916 0.4583-0.18315-0.18332-0.18316-0.36664-0.18316-0.4583-0.18316 0.18332-0.0916 0.18332-0.27473 0.0917-0.3663 0-0.0916-0.18332-0.18315-0.36664-0.18315v-3.2967c0.0917 0.0916 0.27498 0.18315 0.4583 0.18315 0-0.18315 0-0.36631-0.0917-0.45788 0.73328 0.27473 1.4666 0.64103 2.1998 1.0989 0.64162 0.36631 1.3749 1.0073 2.1082 1.8315"/><path d="m358.1 134.41c0.18332-0.0916 0.27498-0.18315 0.27498-0.27473-0.18332 0.0916-0.27498 0-0.27498 0 0.0917-0.0916 0.27498 0 0.0917-0.18315-0.0917-0.18315-0.18332-0.18315-0.36664-0.0916-0.0917 0.18316-1.0082 0-1.0082-0.73261 0.0917 0.0916 0.18332 0.18316 0.27498 0.27473 0 0 0.0917 0 0.0917 0.0916h0.0917 0.27498 0.0917c0.18332 0 0.36664-0.18315 0.36664-0.36631 0-0.3663-0.27498-0.54945-0.73328-0.82418-0.18331-0.0916-0.27497-0.27473-0.36663-0.3663-0.0917-0.27473 0-0.54946-0.36664-1.0073 0-0.0916 0-0.27473-0.0917-0.45788-0.18332 0.27473-0.27498 0.91576 0.18332 1.3736 0.36664 0.45788 1.1916 0.82418 1.0999 1.1905 0 0.0916-0.0917 0.18315-0.18332 0.18315h-0.0917-0.0917c-0.0917 0-0.0917 0-0.18331-0.0916-0.0917-0.0916-0.18332-0.0916-0.27498-0.18315-0.36664-0.27473-0.64162-0.73261-0.82494-1.0073-0.36664-0.45789-0.18332-0.91577-0.18332-1.2821 0.27498-0.36631-0.18332-1.0989-0.36664-1.2821 0 0 0.0917-0.18315 0-0.3663h-0.18332c-0.0917-0.0916-0.0917-0.18315-0.18331-0.18315-0.18332 0-0.18332-0.0916-0.18332-0.18316-0.0917 0.0916-0.0917 0.18316-0.18332 0.18316h-0.27498c-0.0917 0.0916-0.0917 0.0916-0.27498 0.0916-0.18332 0-0.18332 0.0916-0.0917 0.18316 0 0.0916 0 0.18315 0.0917 0.18315l0.0917 0.18315 0.0917-0.18315c0.0917-0.0916 0.27498-0.0916 0.27498 0.0916 0 0.0916 0 0.0916-0.0917 0.18316h-0.36664c-0.0917 0-0.0917 0.0916-0.0917 0.18315 0 0.0916 0.0917 0.0916 0.27498 0.0916 0.18332 0 0.4583-0.0916 0.4583 0.0916 0 0.3663-0.4583 0.3663-0.54996 0.82419-0.0917-0.0916-0.18332-0.18316-0.27498-0.27473-0.0917-0.0916-0.18332-0.27473-0.36664-0.45788-0.0917-0.0916-0.18332-0.18316-0.36664-0.27473-0.18331-0.0916-0.18331-0.18315-0.18331-0.36631 0-0.18315 0.0917-0.27472 0.0917-0.3663v-0.0916c0-0.0916-0.18331-0.18315-0.18331-0.0916 0 0 0.0917 0.0916 0.0917 0.18315l-0.0917 0.0916v0.0916 0.0916c0-0.0916-0.0917-0.27473-0.18332-0.27473h-0.0917c0-0.0916-0.0917-0.18315-0.27498-0.0916h0.0917v0.0916c0 0.0916 0.0917 0.18315 0.18332 0.18315-0.18332-0.0916-0.27498 0-0.27498 0.0916v0.0916c-0.0917 0-0.0917 0.18316 0 0.18316v-0.0916l0.0917 0.0916h0.0917 0.0917c-0.0917 0.0916-0.0917 0.18315 0 0.27472-0.0917 0.0916-0.27498 0.0916-0.27498-0.0916-0.18332 0.27473 0.0917 0.45788 0.27498 0.3663v0.27473s0-0.0916 0.0917-0.0916c0 0.0916 0 0.0916 0.0917 0.18316v-0.0916c0 0.0916 0.0917 0.0916 0.0917 0.18315 0.0917 0.18316 0.27497 0.64104 0.82493 0.82419-0.27498 0.18315-0.36664 0.3663-0.54996 0.54946-0.0917 0.0916-0.36663 0.27472-0.45829 0.18315-0.0917 0-0.0917-0.0916-0.18332-0.18315-0.0917 0-0.0917-0.0916-0.18332 0h-0.0917c-0.0917 0-0.18332 0-0.27498 0.0916h0.18332v0.0916c0 0.0916 0 0.0916 0.27498 0.0916 0 0-0.0917 0.0916-0.0917 0-0.0917 0-0.18332-0.0916-0.27498 0l-0.0917 0.0916c-0.0917 0-0.18332 0.18315-0.0917 0.27473 0 0 0-0.0916 0.0917-0.18315 0 0 0 0.0916 0.0917 0.0916 0.0917 0.0916 0.18332 0.18315 0.27498-0.0916 0 0.0916-0.0917 0.27472 0 0.27472h0.0917c0 0.0916 0.18332 0.18316 0.27498 0.0916-0.0917 0-0.0917-0.0916-0.18332-0.18315h0.0917c0.0917-0.0916 0-0.18315 0-0.27473 0 0.0916 0.0917 0.18315 0.27498 0.0916 0.0917 0 0.0917-0.0916 0.0917-0.18316 0.18331-0.0916 0.27497-0.0916 0.45829-0.0916 0-0.0916 0.0917-0.18315 0.27498-0.27473 0.18332-0.0916 0.27498 0 0.27498 0.0916 0-0.0916 0.0917-0.18316 0.18332-0.27473 0 0.73261 0.91659 0.64103 1.1916 1.0989-0.27498-0.0916-0.64161-0.18315-0.73327-0.18315-0.27498 0-0.64162 0.27473-0.64162 0.54945 0 0.18316 0.18332 0.64104 0.36664 0.73261-0.27498 0.0916-0.36664 0-0.64162 0-0.18332 0-0.27498-0.3663-0.4583-0.27472 0 0-0.0917 0-0.0917 0.0916-0.0917 0-0.27497 0.0916-0.18331 0.18315 0 0 0.0917-0.0916 0.18331-0.0916v0.0916s0 0.0916 0.0917 0.0916h0.0917c0 0.0916-0.27498-0.0916-0.27498 0.18315 0 0 0 0.0916 0.0917 0.0916 0 0.0916 0.0917 0.18315 0.18332 0.0916l-0.0917-0.0916h0.0917v0.0916 0.0916c0 0.0916 0.0917 0.18315 0.27498 0.0916 0 0-0.0917 0-0.0917-0.0916h0.0917v-0.0916h0.0917c0 0.0916 0.0917 0.0916 0.18332 0.0916 0.0917 0 0.0917-0.0916 0.0917-0.0916s0.0917 0 0.0917 0.0916c0-0.0916 0-0.18315 0.27498 0l0.18332-0.0916s0.18332 0.0916 0.27498 0c0.0917-0.0916 0.0917-0.0916 0.0917-0.27472-0.0917-0.18316-0.18332-0.18316-0.18332-0.36631-0.0917-0.3663 0.45829-0.54946 0.73327-0.45788 0.0917 0.18315 0.36664 0.82419 0.9166 1.0073 0.36664 0.0916 0.4583-0.27473 0.54996-0.18315l0.0917 0.0916v0.36631c0 0.0916-0.18332 0-0.36664 0-0.0917 0-0.0917 0-0.0917 0.0916-0.0917 0-0.18332 0.0916-0.18332 0.18316 0 0 0.0917-0.0916 0.18332-0.0916v0.0916c0 0.0916 0.18332 0.18315 0.27498 0.0916 0 0 0.0917 0 0 0-0.0917 0.0916-0.18332 0.18315-0.0917 0.27473h0.0917c0 0.0916 0.0917 0.18315 0.0917 0.18315v-0.18315h0.0917c0.0917 0 0.0917-0.18315 0.18331-0.18315 0 0.0916-0.0917 0.18315 0 0.27473h0.0917c0 0.0916 0.0917 0.0916 0.27498 0.0916 0 0-0.0917 0-0.0917-0.0916l0.0917-0.0916c0.0917-0.18315-0.0917-0.18315-0.0917-0.27473 0-0.0916 0.18332 0 0.18332-0.27473 0.0917-0.0916 0.18332-0.0916 0.27498-0.18315 0.18332 0.0916 0 0 0 0z"/><path d="m348.62 140.79h-0.18332v-0.18315c0-0.64103-0.36664-1.1905-1.0999-1.1905-0.64162 0-1.9248 0.82419-3.6664 0.82419-0.73328 0-1.6499-0.36631-2.1998-0.64104l-0.18332 0.54946v-0.0916c0-0.27472-0.18332-0.45788-0.4583-0.45788s-0.4583 0.18316-0.4583 0.45788c0 0.27473 0.18332 0.45788 0.4583 0.45788 0.0917 0 0.27498-0.0916 0.36664-0.18315l-0.18332 0.54946c0.0917 0 0.18332 0.0916 0.18332 0.0916-0.27498 2.6557 1.7415 6.044 5.1329 7.0514 0.54996-0.0916 1.0083-0.0916 1.0083 0.45788 0 0.3663-0.18332 0.45788-0.4583 0.45788-0.18332 0-0.36664-0.0916-0.36664-0.27473 0-0.27473 0.36664-0.0916 0.4583-0.27473 0.0917-0.18315-0.0917-0.27473-0.36664-0.27473-0.27498 0-0.64162 0.18315-0.64162 0.54946 0 0.45788 0.36664 0.73261 0.82494 0.73261 0.36664 0 1.1916-0.18315 1.0999-1.1905 0.18332 0 0.36664 0 0.4583-0.18315v-0.54946h-0.18332l0.18332-6.044h0.0917c0.18332 0 0.4583-0.0916 0.4583-0.36631 0.0917-0.18315-0.0917-0.27473-0.27498-0.27473m-6.2328 0.45788 4.2163 6.044c-2.2915-0.91576-4.4913-2.9304-4.2163-6.044m4.308 5.403-3.8497-5.4946h0.36664 0.54995l3.1164 4.3956c-0.0917 0.45788-0.18332 0.82419-0.18332 1.0989m0.27498-1.7399-2.7498-3.8462c0.27498-0.0916 0.54996-0.18315 0.82494-0.27473l2.0165 2.9304c0 0.3663 0 0.82418-0.0917 1.1905m0.64162-4.2125h-0.18332c-0.18332 0-0.36664 0.0916-0.4583 0.27472 0 0.27473 0.18332 0.36631 0.36664 0.36631h0.0917v0.18315c-0.0917 0.36631-0.18332 0.91576-0.27498 1.5568l-1.7415-2.4726c0.82493-0.27473 1.4666-0.64103 1.8332-0.64103s0.4583 0.18315 0.36664 0.73261"/><path d="m347.91 128.56c0.82494 0 1.1916-0.27473 1.1916-0.54945 0-0.91576-2.2915-0.36631-2.2915-0.91576 0-0.0916 0.0917-0.18316 0.18332-0.27473 1.0999-0.0916 1.1916-0.91576 1.9248-1.0073-1.0083-0.18315-1.0999 0.64103-1.5582 0.64103 0.18332-0.0916 0.27497-0.3663 0.27497-0.45788-0.18331 0.27473-0.64161 0.27473-0.91659 0.54946 0 0.0916-0.0917 0.0916 0 0.18315-0.18332 0.0916-0.27498 0.18315-0.27498 0.36631 0 0.82418 2.2915 0.27472 2.2915 0.91576 0 0.18315-0.36664 0.3663-1.0083 0.3663-0.45829 0-0.82493-0.3663-1.6499-0.0916 0-0.18315 0.27498-0.45788 0.18332-0.54945 0.0917 0 0.18332-0.0916 0.18332-0.18315-0.0917-0.0916-0.0917-0.0916-0.18332-0.0916v-0.0916s0-0.0916-0.0917-0.0916c0 0-0.0917-0.0916-0.18332-0.0916-0.0917-0.0916-0.18332-0.0916-0.18332-0.0916h-0.0917c-0.0917 0-0.0917 0-0.0917 0.0916 0 0-0.0916-0.0916-0.18331-0.0916 0 0.0916-0.0917 0.0916 0 0.27472-0.0917 0-0.18332 0.18316-0.27498 0.18316 0 0.0916 0.0917 0.0916 0.0917 0.0916-0.0917 0.0916-0.0917 0.27473-0.18332 0.27473 0 0 0 0.0916 0.0917 0.0916-0.0917 0.18315-0.0917 0.3663-0.0917 0.54945-0.0917-0.0916-0.0917-0.0916-0.18332-0.18315-0.0917-0.0916-0.0917-0.18315-0.0917-0.27473 0-0.0916 0.0917-0.18315 0.0917-0.27473v-0.0916c0-0.0916-0.0917-0.0916-0.18332-0.0916l0.0917 0.0916-0.0917 0.0916s-0.0917 0.0916 0 0.0916v0.0916c0-0.0916 0-0.18316-0.0917-0.18316h-0.0917c0-0.0916-0.0917-0.18315-0.18332-0.0916h0.0917v0.0916c0 0.0916 0 0.0916 0.18332 0.0916-0.18332-0.0916-0.27498 0-0.27498 0.0916v0.0916c-0.0917 0-0.0917 0.0916 0 0.18315 0 0 0-0.0916 0.0917-0.0916h0.0917c-0.0917 0.0916-0.0917 0.18315 0 0.18315 0 0.18315-0.27498 0.18315-0.27498 0-0.18332 0.18315 0.0917 0.36631 0.27498 0.27473 0 0 0 0.0916 0.0917 0.0916h0.0917s0 0.0916 0.0917 0.0916v-0.0916s0.0917 0.18315 0.18332 0.27472c-0.18332 0.0916-0.4583 0.18316-0.54996 0.18316h-0.36664c-0.0917 0.0916-0.4583 0.18315-0.54996 0.0916 0 0 0-0.0916-0.0917-0.18315l-0.0917-0.0916h-0.0917c-0.0917-0.0916-0.18332-0.0916-0.18332 0 0 0 0.0917 0 0.0917 0.0916v0.0916s0 0.0916 0.18332 0.18315h-0.0917c-0.0917-0.0916-0.0917-0.18315-0.18332-0.0916h-0.0917c-0.0917 0-0.18332 0.0916-0.18332 0.18315 0 0 0-0.0916 0.0917-0.0916v0.0916c0 0.0916 0.0917 0.18316 0.27498 0-0.0917 0.0916-0.18332 0.18316-0.0917 0.27473h0.0917c0 0.0916 0.0917 0.18316 0.18332 0.18316 0 0-0.0917-0.0916-0.0917-0.18316h0.0917c0.0917 0 0.0917-0.18315 0.0917-0.18315 0 0.0916 0 0.18315 0.18331 0.18315 0.0917 0 0.18332-0.0916 0.18332-0.18315l0.0917 0.0916s0.0917 0 0.0917-0.0916v0.18315s0.18332-0.0916 0.18332-0.18315v0.0916h0.27498v0.0916-0.0916s0 0.0916 0.0917 0.18315c0-0.27473 0.18332-0.18315 0.36664-0.27473 0 0 0 0.0916-0.0917 0.0916 0.0917 0 0.27498-0.0916 0.27498-0.18316l0.0917-0.0916c0.0917 0 0.18332 0 0.18332-0.0916v0.18315c0.18332 0 0.36663-0.18315 0.45829-0.27472 0.4583-0.0916-0.27497-0.36631 0.64162-0.36631 0.0917 0 0.18332 0 0.27498-0.0916-0.0917 0.0916-0.0917 0.3663 0.0917 0.45788 0.0917 0 0.18332 0.0916 0.18332 0.0916-0.0917 0-0.18332 0-0.18332 0.0916-0.18332 0.0916-0.18332-0.27473-0.4583-0.18315h-0.0917c-0.0917 0-0.18332 0.0916-0.18332 0.18315 0 0 0.0917-0.0916 0.18332-0.0916 0 0 0 0.0916 0.0917 0.0916h0.0917c0 0.0916-0.27498 0-0.18332 0.18315v0.0916c0 0.0916 0.0917 0.18315 0.18332 0.0916 0 0-0.0917 0-0.0917-0.0916h0.0917v0.0916 0.0916c0 0.0916 0.0917 0.18315 0.27498 0.0916 0 0-0.0917 0-0.0917-0.0916h0.0917v-0.0916h0.0917c0 0.0916 0.0917 0.0916 0.18332 0.0916 0.18332-0.0916 0-0.18315 0.18332-0.18315h0.0917 0.27498c0-0.0916 0-0.27473-0.0917-0.36631-0.0917 0 0-0.0916-0.0917-0.27473 0.0917 0.0916 0.27497 0.0916 0.45829 0.0916 0.27498 0 0-0.0916 0.18332-0.0916 0.18332-0.0916 0.36664-0.0916 0.36664 0 0 0 0.0917 0 0.0917 0.0916v0.27473c0 0.0916-0.18332 0-0.27498 0h-0.0917c-0.0917 0-0.18332 0.0916-0.18332 0.18315 0 0 0.0917-0.0916 0.18332-0.0916 0 0.0916 0.0917 0.18316 0.18332 0.0916-0.0917 0.0916-0.18332 0.18315-0.0917 0.18315h0.0917c0 0.0916 0 0.18316 0.0917 0.18316v-0.0916h0.0917c0.0917 0 0-0.0916 0.0917-0.18315v0.18315h0.0917c0 0.0916 0.0917 0.0916 0.18332 0.0916 0 0-0.0917 0-0.0917-0.0916l0.0917-0.0916c0-0.18315-0.0917-0.18315-0.0917-0.27473 0-0.0916 0.18332 0 0.18332-0.18315 0 0 0-0.0916-0.0917-0.0916 0 0 0.0917 0 0.0917-0.0916-0.0917 0-0.0917-0.0916-0.0917-0.18315 0 0 0.0917-0.0916 0.0917-0.18315 0 0.0916-0.18332 0.0916-0.18332 0 0 0 0-0.0916-0.0917-0.0916-0.27498 0.0916-0.36664-0.0916-0.73328-0.0916-0.0917 0-0.0917 0 0 0m-2.5665-0.91576m0.64161-0.18315s0.18332 0.0916 0.27498 0.0916c-0.0917 0-0.0917 0.0916-0.18332 0.0916-0.0917 0-0.0917-0.0916-0.0917-0.18315m-0.18332-0.0916c0 0.0916-0.0917 0.0916-0.18332 0.0916-0.0916-0.0916 0-0.0916-0.0916-0.18315 0.0916 0 0.27497 0.0916 0.27497 0.0916m-0.27497 0.54946s0.0916-0.0916 0 0c0.0916-0.0916 0.0916-0.0916 0.18331-0.18315 0-0.0916 0-0.0916-0.0917-0.0916 0.0917 0 0.0917 0 0.0917-0.0916h-0.0917l0.0917-0.0916h0.0917l0.18332 0.0916v0.0916 0.0916s0-0.0916-0.0917-0.0916v0.0916h-0.0917v0.1832c0 0.0916-0.0917 0.0916-0.27497 0v0"/><path d="m349.04 131.62c0-0.27473-0.27498-0.36631-1.0999-0.36631-0.82494 0-2.6581 0.27473-2.6581-0.18315 0-0.18315 0.36664-0.18315 0.73327-0.18315 0 0 0.0917 0.0916 0.18332 0.0916 1.0083 0.27472 2.2915-0.27473 2.9331-0.0916-0.73328-0.54946-1.3749 0-2.1082-0.18315 0.4583 0 0.64162-0.0916 0.64162-0.27473-0.36664 0.27473-1.0083-0.0916-1.4666 0.18315 0 0-0.0917 0-0.0917 0.0916-0.54995 0-1.0082 0-1.0082 0.3663 0 0.82419 2.1998 0.36631 2.8414 0.36631 0.64161 0 0.82493 0.0916 0.82493 0.18315 0 0.18315-0.64162 0.27473-1.0082 0.27473-0.54996 0-2.3832-0.27473-3.3914-0.0916 0.0917-0.18315 0.27498-0.3663 0.18332-0.54946 0.0917 0 0.18332-0.0916 0.18332-0.18315-0.0917-0.0916-0.0917-0.0916-0.18332-0.0916 0-0.0916 0-0.0916-0.0917-0.18316 0 0 0-0.0916-0.0917-0.0916 0 0-0.0917-0.0916-0.27498-0.18316-0.0917-0.0916-0.18332-0.0916-0.27497-0.0916h-0.18332c-0.0917 0-0.0917 0-0.0917 0.0916-0.0917-0.0916-0.0917-0.0916-0.18332-0.0916 0 0.0916-0.0917 0.18315 0 0.27473-0.0917 0-0.18332 0.27473-0.27498 0.18315 0 0.0916 0.0917 0.0916 0.0917 0.0916-0.0917 0.18315-0.0917 0.27472-0.18332 0.27472l0.0917 0.0916v0.27473l-0.18332-0.0916h-0.0917 0.0917-0.0917c-0.0917-0.0916-0.18332-0.18315-0.36664-0.27473-0.18332-0.0916-0.18332-0.18315-0.18332-0.3663s0.0917-0.27473 0.0917-0.36631v-0.0916c0-0.0916-0.0917-0.18315-0.18332-0.18315 0 0 0.0917 0.0916 0.0917 0.18315l-0.0917 0.0916v0.18316 0.0916c0-0.0916-0.0917-0.27473-0.18332-0.27473h-0.0917c0-0.0916-0.0917-0.18315-0.27497-0.0916h0.0917v0.0916c0 0.0916 0.0917 0.18316 0.18331 0.18316v0.0916c-0.18331-0.0916-0.27497 0-0.27497 0.0916v0.0916c-0.0917 0.0916-0.0917 0.18315 0 0.18315v-0.0916h0.0917 0.0917c-0.0917 0.0916-0.0917 0.27473 0 0.27473 0 0.18315-0.36664 0.18315-0.27498 0-0.18332 0.27473 0.0917 0.45788 0.36663 0.3663 0 0 0 0.0916 0.0917 0.0916 0 0 0-0.0916 0.0917-0.0916 0 0.0916 0 0.0916 0.0917 0.18316v-0.0916s0.18332 0.18315 0.36664 0.27473c0.18332 0.0916 0.27498 0.18315 0.36664 0.0916 0 0.18316 0.0917 0.36631 0.0917 0.36631h-0.54996c-0.18332 0.0916-0.54996 0.18315-0.64161 0.0916 0-0.0916 0-0.0916-0.0917-0.18316 0-0.0916-0.0917-0.0916-0.0917-0.0916h-0.0917c-0.0917-0.0916-0.18332-0.0916-0.27498 0 0 0 0.0917 0 0.18332 0.0916v0.0916c0 0.0916 0 0.0916 0.18332 0.18315h-0.0917c-0.0917-0.0916-0.0917-0.18315-0.18332-0.0916h-0.0917c-0.0917 0-0.27498 0.0916-0.18332 0.27472l0.0917-0.0916v0.0916c0 0.0916 0.0917 0.18316 0.36664 0.0916-0.0917 0.0916-0.18332 0.18315-0.0917 0.27473h0.0917c0 0.18315 0.0917 0.27473 0.18332 0.27473 0 0-0.0917-0.0916-0.0917-0.18316h0.0917c0.0917-0.0916 0.0917-0.18315 0.0917-0.27472 0 0.0916 0 0.18315 0.18331 0.18315 0.0917 0 0.18332-0.0916 0.18332-0.18315 0 0 0.0917 0.0916 0.0917 0.18315 0 0 0.0917 0 0.0917-0.0916 0 0.0916 0 0.18315-0.0917 0.27473 0.0917 0 0.18332-0.0916 0.18332-0.27473 0 0 0 0.0916 0.0917 0.0916h0.27498v0.0916s0-0.0916 0.0917-0.0916c0 0 0 0.0916 0.0917 0.18315 0-0.3663 0.18332-0.18315 0.4583-0.3663 0 0 0 0.0916-0.0917 0.0916 0.27498 0.0916 0.64161-0.27473 0.73327-0.45788h0.27498c0.73328 0.0916 0.18332-0.64103 1.3749-0.45788 0.0917 0 0.18332-0.0916 0.27497-0.0916-0.0917 0.18316-0.0917 0.45789 0.0917 0.45789 0.0917 0 0.18332 0.0916 0.27498 0.0916-0.0917 0-0.18332 0-0.18332 0.0916-0.27497 0.18315-0.27497-0.36631-0.45829-0.27473 0 0-0.0917 0-0.0917 0.0916-0.0917 0-0.27498 0.0916-0.18332 0.18315 0 0 0.0917-0.0916 0.18332-0.0916v0.0916s0 0.0916 0.0917 0.0916h0.0917c0 0.0916-0.36664-0.0916-0.27498 0.18316v0.0916c0 0.0916 0.0917 0.18315 0.18332 0.0916l-0.0917-0.0916h0.0917v0.0916 0.0916c0 0.0916 0.0917 0.18316 0.27497 0.0916 0 0-0.0917 0-0.18331-0.0916h0.0917v-0.0916h0.0917 0.0917c0 0.0916 0.0917 0.0916 0.18332 0.0916 0.18332-0.0916 0-0.18315 0.18332-0.27472h0.0917 0.36664c0-0.0916 0-0.27473-0.0917-0.36631-0.0917 0 0-0.18315-0.0917-0.27473 0.18332 0.0916 0.27498 0.0916 0.4583 0.0916 0.36664 0 0.4583-0.0916 0.64162-0.18315 0.18331-0.0916 0.36663-0.0916 0.45829 0 0 0 0.0917 0 0.0917 0.0916v0.27473c0 0.0916-0.18332 0-0.27498 0-0.0917 0-0.0917 0-0.0917 0.0916-0.0917 0-0.18331 0.0916-0.18331 0.18315 0 0 0.0917-0.0916 0.18331-0.0916 0 0.0916 0.18332 0.18316 0.27498 0.0916-0.0917 0.0916-0.18332 0.18315-0.0917 0.18315h0.0917c0 0.0916 0.0917 0.18315 0.0917 0.18315v-0.18315h0.0917c0.0917 0 0-0.18315 0.0917-0.18315 0 0.0916-0.0917 0.18315 0 0.27473h0.0917c0 0.0916 0.0917 0.0916 0.18332 0.0916 0 0-0.0917 0-0.0917-0.0916l0.0917-0.0916c0.0917-0.18315-0.0917-0.18315-0.0917-0.27473 0-0.0916 0.18332 0 0.18332-0.18315 0 0 0-0.0916-0.0917-0.0916 0.0917 0 0.0917 0 0.18332-0.0916-0.18332 0-0.0917-0.0916-0.0917-0.18315 0.0917 0 0.0917-0.0916 0.0917-0.18316-0.0917 0.0916-0.18332 0.18316-0.18332 0 0 0 0-0.0916-0.18332-0.0916-0.27498 0-0.4583 0-0.91659-0.0916 0.45829 0 1.2832-0.0916 1.2832-0.3663m-6.3245 0.45788m1.2832-1.1905s0.18332 0.0916 0.27498 0.0916c-0.18332 0-0.0917 0.0916-0.18332 0.0916-0.0917 0-0.0917-0.0916-0.0917-0.18315m-0.18331-0.0916c0 0.0916-0.0917 0.0916-0.18332 0.0916-0.0917-0.0916 0-0.0916-0.0917-0.18315 0.0917 0 0.27498 0.0916 0.27498 0.0916m-0.27498 0.64104c0-0.0916 0.0917-0.0916 0 0 0.18332-0.0916 0.18332-0.0916 0.18332-0.18316 0-0.0916 0-0.0916-0.0917-0.0916 0.0917 0 0.0917 0 0.0917-0.0916h-0.0917s0-0.0916 0.0917-0.0916h0.0917l0.27497 0.0916s0.0917 0 0.0917 0.0916v0.0916s0-0.0916-0.0917-0.0916v0.0916c-0.0917 0-0.0917-0.0916-0.18332 0v0.0916 0.0916c0 0.0916-0.0916 0.18315-0.18331 0.0916-0.27498 0.0916-0.27498 0-0.18332-0.0916m0.64161 1.4652v0"/><path d="m348.64 135.11c0-0.27473-0.27498-0.3663-1.0082-0.3663-0.73328 0-3.1164 0.27473-3.1164-0.18316 0-0.27472 0.82494-0.18315 1.3749-0.18315 0 0 0.0917 0.0916 0.18332 0.0916 1.0083 0.27473 2.0165-0.36631 2.7498-0.18315-0.54996-0.54946-1.2832 0.0916-2.0165-0.0916 0.4583 0 0.9166-0.0916 0.9166-0.18315-0.36664 0.18315-1.2832-0.18315-1.7415 0.0916 0 0-0.0917 0-0.0917 0.0916-0.73327 0-1.6499-0.0916-1.6499 0.3663 0 0.73261 2.6581 0.27473 3.2998 0.27473 0.64161 0 0.82493 0.0916 0.82493 0.18316 0 0.18315-0.64161 0.18315-1.0082 0.18315-0.54996 0-3.1164-0.36631-4.1247 0 0.0917-0.18315 0.27498-0.45788 0.18332-0.54946 0.0917 0 0.18332-0.0916 0.18332-0.18315-0.0917-0.0916-0.0917-0.0916-0.18332-0.0916v-0.0916s0-0.0916-0.0917-0.0916c0 0-0.0917-0.0916-0.18332-0.18315-0.0917-0.0916-0.18332-0.0916-0.18332-0.0916h-0.18332c-0.0917 0-0.0917 0-0.0917 0.0916 0 0-0.0917-0.0916-0.18332-0.0916 0 0.0916-0.0917 0.18315 0 0.27473-0.0917 0-0.18332 0.27473-0.27498 0.18315 0 0.0916 0.0917 0.0916 0.0917 0.0916-0.0917 0.0916-0.0917 0.27473-0.18332 0.27473l0.0917 0.0916v0.27473h-0.0917-0.0917-0.0917c-0.0917 0-0.18332-0.18315-0.45829-0.3663-0.18332-0.0916-0.18332-0.18316-0.18332-0.27473 0-0.0916 0.0917-0.27473 0.0917-0.36631v-0.0916c0-0.0916-0.18332-0.18315-0.18332-0.0916l0.0917 0.0916-0.0917 0.0916v0.0916 0.0916c0-0.0916-0.0917-0.27473-0.18332-0.27473h-0.0917c0-0.0916-0.0917-0.18315-0.18332-0.0916h0.0917v0.0916c0 0.0916 0.0917 0.0916 0.18332 0.18315-0.18332-0.0916-0.27498 0-0.27498 0.0916v0.0916c-0.0917 0.0916-0.0917 0.0916 0 0.18315v-0.0916h0.0917 0.0917 0.0917c-0.0917 0.0916-0.0917 0.18315 0.0917 0.27473 0 0.18315-0.27498 0.18315-0.27498 0-0.18332 0.27473 0.0917 0.45788 0.36664 0.27473 0 0 0 0.0916 0.0917 0.0916h0.0917c0 0.0916 0 0.0916 0.0917 0.18315v-0.0916s0.18332 0.27473 0.54995 0.45788c0.0917 0 0.18332 0 0.18332-0.0916 0 0 0 0.0916 0.0917 0.0916 0 0.18315 0.0917 0.27473 0.0917 0.27473h-0.64162c-0.18331 0.0916-0.45829 0.18315-0.64161 0.0916 0-0.0916 0-0.0916-0.0917-0.18315 0-0.0916-0.0917-0.0916-0.0917-0.0916h-0.0917c-0.0917-0.0916-0.18332-0.0916-0.27498 0 0 0 0.0917 0 0.18332 0.0916v0.0916c0 0.0916 0 0.0916 0.18332 0.18315h-0.0917c-0.0917-0.0916-0.0917-0.18315-0.18332-0.0916h-0.0917c-0.0917 0-0.27498 0.0916-0.18332 0.27473l0.0917-0.0916v0.0916c0 0.0916 0.0917 0.18315 0.27498 0.0916-0.0917 0.0916-0.18332 0.18315-0.0917 0.27473h0.0917c0 0.0916 0.0917 0.27472 0.18332 0.18315 0 0-0.0917-0.0916-0.0917-0.18315h0.0917c0.0917 0 0.0917-0.18316 0.0917-0.18316 0 0.0916 0 0.18316 0.18332 0.18316 0.0917 0 0.18332-0.0916 0.18332-0.18316 0 0 0.0917 0.0916 0.0917 0.18316l0.0917-0.0916c0 0.0916 0 0.18315-0.0917 0.18315 0.0917 0 0.18332-0.0916 0.18332-0.18315v0.0916h0.27497v0.0916s0-0.0916 0.0917-0.0916c0 0 0 0.0916 0.0917 0.18315 0-0.36631 0.4583-0.18315 0.64162-0.27473 0 0 0 0.0916-0.0917 0.0916 0.0917 0 0.18332 0 0.27498-0.0916l0.36664-0.18315v-0.0916h0.0917c0.18332 0 0.18332-0.18315 0.27498-0.18315 1.2832 0.18315 0.54995-0.54946 2.0165-0.36631 0.0917 0 0.0917 0 0.18331-0.0916-0.0917 0.18315-0.0917 0.3663 0.0917 0.3663 0.0917 0 0.18332 0.0916 0.27498 0.0916-0.0917 0-0.18332 0-0.18332 0.0916-0.27497 0.18316-0.27497-0.3663-0.45829-0.27472 0 0-0.0917 0-0.0917 0.0916-0.0917 0-0.27498 0.0916-0.18332 0.18315 0 0 0.0917-0.0916 0.18332-0.0916v0.0916s0 0.0916 0.0917 0.0916h0.0917c0 0.0916-0.27498-0.0916-0.27498 0.18315v0.0916c0 0.0916 0.0917 0.18315 0.18332 0.0916l-0.0917-0.0916h0.0917v0.0916 0.0916c0 0.0916 0.0917 0.18315 0.27497 0.0916 0 0-0.0917 0-0.0917-0.0916h0.0917v-0.0916h0.0917 0.0917c0 0.0916 0.0917 0.0916 0.18332 0.0916 0.18332-0.0916 0-0.18315 0.18332-0.27473h0.0917 0.36664c0-0.0916 0-0.27473-0.0917-0.3663-0.0917 0 0-0.18315-0.0917-0.27473 0.18332 0.0916 0.27498 0.0916 0.4583 0.0916 0.36664 0 0.4583-0.0916 0.54996-0.18316 0.18331-0.0916 0.36663-0.0916 0.45829 0 0 0 0.0917 0 0.0917 0.0916v0.27473c0 0.0916-0.18332 0-0.27498 0-0.0917 0-0.0917 0-0.0917 0.0916-0.0916 0-0.18331 0.0916-0.18331 0.18316 0 0 0.0917-0.0916 0.18331-0.0916 0 0.0916 0.18332 0.18315 0.18332 0.0916-0.0917 0.0916-0.18332 0.18315-0.0917 0.18315h0.0917c0 0.0916 0.0917 0.18315 0.0917 0.18315v-0.18315h0.0917c0.0917 0 0-0.18315 0.0917-0.18315v0.18315h0.0917c0 0.0916 0.0917 0.0916 0.18332 0.0916 0 0-0.0917 0-0.0917-0.0916l0.0917-0.0916c0.0917-0.18315-0.0917-0.18315-0.0917-0.27473 0-0.0916 0.18332 0 0.18332-0.18315 0 0 0-0.0916-0.0917-0.0916 0.0917 0 0.0917 0 0.0917-0.0916-0.18332 0-0.0917-0.0916-0.0917-0.18315 0 0 0.0917-0.0916 0.0917-0.18315 0 0.0916-0.18332 0.18315-0.18332 0 0 0 0-0.0916-0.18332-0.0916-0.27498 0-0.36664 0-0.82493-0.0916 0.36663 0.18316 1.0999 0.0916 1.0999-0.18315m-5.5912-0.64103s0.18332 0.0916 0.27498 0.0916c-0.0917 0-0.0917 0.0916-0.18332 0.0916-0.0917 0-0.0917-0.0916-0.0917-0.18315m-0.18332-0.0916c0 0.0916-0.0917 0.0916-0.18332 0.0916-0.0917-0.0916 0-0.0916-0.0917-0.18315 0.0917 0 0.27498 0.0916 0.27498 0.0916m-0.27498 0.64104v0c0.18332-0.0916 0.18332-0.0916 0.18332-0.18316 0-0.0916 0-0.0916-0.0917-0.0916 0.0917 0 0.0917 0 0.0917-0.0916h-0.0917l0.0917-0.0916h0.0917l0.27498 0.0916s0.0917 0 0.0917 0.0916v0.0916s0-0.0916-0.0917-0.0916v0.0916h-0.18332v0.1832c0 0.0916-0.0917 0.0916-0.18332 0.0916-0.18332 0-0.18332-0.0916-0.18332-0.0916"/><path d="m359.6 140.98c0.0917-0.0916 0.0917-0.0916 0.0917-0.27473-0.0917 0.0916-0.18332 0.18315-0.18332 0 0 0 0-0.0916-0.18332-0.0916-0.27498 0-0.4583 0-0.9166-0.0916 0 0-0.0917 0 0 0 0.4583 0 1.2832-0.0916 1.2832-0.36631 0-0.27472-0.27498-0.3663-1.0083-0.3663s-3.1164 0.27473-3.1164-0.18315c0-0.27473 0.82493-0.18316 1.3749-0.18316 0 0 0.0917 0.0916 0.18332 0.0916 1.0082 0.27473 2.1082-0.45788 2.7498-0.27473-0.73327-0.27473-1.2832 0.18315-2.0165 0 0.4583 0 0.9166-0.0916 0.9166-0.18315-0.36664 0.18315-1.2832-0.18315-1.7415 0.0916 0 0-0.0917 0-0.0917 0.0916-0.73328 0-1.6499-0.0916-1.6499 0.36631 0 0.73261 2.6581 0.27473 3.2997 0.27473s0.82494 0.0916 0.82494 0.18315c0 0.18315-0.64162 0.27473-1.0083 0.27473-0.64162 0-3.1164-0.36631-4.1247 0 0.0917-0.18316 0.27498-0.45788 0.18332-0.54946 0.0917 0 0.18332-0.0916 0.18332-0.18315-0.0917-0.0916-0.0917-0.0916-0.18332-0.0916v-0.0916s0-0.0916-0.0917-0.0916c0 0-0.0917-0.0916-0.18332-0.18315-0.0917-0.0916-0.18332-0.0916-0.18332-0.0916h-0.0917c-0.0917 0-0.0917 0-0.0917 0.0916-0.0917 0-0.0917-0.0916-0.18331-0.0916 0 0.0916-0.0917 0.18315 0 0.27473-0.0917 0-0.18332 0.27473-0.27498 0.18315 0 0.0916 0.0917 0.0916 0.0917 0.0916-0.0917 0.0916-0.0917 0.27473-0.18332 0.27473l0.0917 0.0916v0.18315h-0.0917-0.0917-0.0917c-0.0917 0-0.18332-0.18315-0.4583-0.3663-0.18332-0.0916-0.18332-0.18315-0.18332-0.27473 0-0.0916 0.0917-0.27473 0.0917-0.3663v-0.0916c0-0.0916-0.0917-0.18315-0.18332-0.0916l0.0917 0.0916-0.0917 0.0916v0.0916 0.0916c0-0.0916-0.0917-0.18315-0.18332-0.27473h-0.0917c0-0.0916-0.0917-0.18315-0.18332-0.0916h0.0917v0.0916c0 0.0916 0.0917 0.18315 0.18332 0.18315-0.18332-0.0916-0.27498 0-0.27498 0.0916v0.0916c-0.0917 0-0.0917 0.0916 0 0.18316v-0.0916h0.0917 0.0917 0.0917c-0.0917 0.0916-0.0917 0.27473 0.0917 0.27473 0 0.18315-0.27498 0.18315-0.27498 0-0.18332 0.27473 0.0917 0.45788 0.36664 0.27473 0 0 0 0.0916 0.0917 0.0916h0.0917c0 0.0916 0 0.0916 0.0917 0.18316v-0.0916s0.18332 0.27473 0.4583 0.45788c0 0 0.0917-0.0916 0.18332-0.0916 0 0.0916 0.0917 0.0916 0.0917 0.18316h0.0917c0 0.18315 0.18332 0.27472 0.0917 0.27472h-0.4583c-0.18332 0.0916-0.4583 0.18316-0.64162 0.0916 0-0.0916 0-0.0916-0.0917-0.18315 0-0.0916-0.0917-0.0916-0.0917-0.0916h-0.0917c-0.0917-0.0916-0.18332-0.0916-0.27498 0 0 0 0.0917 0 0.0917 0.0916v0.0916c0 0.0916 0 0.0916 0.18332 0.18316h-0.0917c-0.0917-0.0916-0.0917-0.18316-0.18332-0.0916h-0.0917c-0.0917 0-0.27497 0.0916-0.18332 0.27473l0.0917-0.0916v0.0916c0 0.0916 0.0917 0.18315 0.27498 0.0916-0.0917 0.0916-0.18332 0.18315-0.0917 0.27472h0.0917c0 0.0916 0.0917 0.18316 0.18332 0.18316 0 0-0.0917-0.0916-0.0917-0.18316h0.0917c0.0917 0 0.0917-0.18315 0.0917-0.18315 0 0.0916 0 0.18315 0.18332 0.18315 0.0917 0 0.18332-0.0916 0.18332-0.18315 0 0 0.0917 0.0916 0.0917 0.18315l0.0917-0.0916c0 0.0916 0 0.18315-0.0917 0.27473 0.0917 0 0.18332-0.0916 0.18332-0.27473 0 0 0 0.0916 0.0917 0.0916h0.27498v0.0916s0-0.0916 0.0917-0.0916c0 0 0 0.0916 0.0917 0.18316 0-0.36631 0.18332-0.18316 0.45829-0.36631 0 0 0 0.0916-0.0917 0.0916 0.0917 0.0916 0.36664-0.0916 0.36664-0.27473 0 0 0.0917 0 0.18332-0.0916 0.18332 0 0.18332-0.18315 0.27498-0.18315 1.2832 0.18315 0.54996-0.54946 2.0165-0.3663 0.0917 0 0.0917-0.0916 0.18332-0.18316-0.0917 0.18316-0.0917 0.45788 0.0917 0.45788 0.0917 0 0.18332 0.0916 0.27498 0.0916-0.0917 0-0.18332 0-0.18332 0.0916-0.18332 0.18315-0.27498-0.36631-0.4583-0.27473 0 0-0.0917 0-0.0917 0.0916-0.0917 0-0.18332 0.0916-0.18332 0.18316 0 0 0.0917-0.0916 0.18332-0.0916v0.0916s0 0.0916 0.0917 0.0916h0.0917c0 0.0916-0.27498-0.0916-0.27498 0.18316 0 0 0 0.0916 0.0917 0.0916 0 0.0916 0.0917 0.18315 0.18332 0.0916l-0.0917-0.0916h0.0917v0.0916 0.0916c0 0.0916 0.0917 0.18316 0.27498 0.0916 0 0-0.0917 0-0.0917-0.0916h0.0917v-0.0916h0.0917c0 0.0916 0.0917 0.0916 0.18332 0.0916 0.18332-0.0916 0-0.18315 0.18332-0.18315h0.0917 0.36663c0-0.0916 0-0.27473-0.0917-0.3663-0.0917 0 0-0.18316-0.0917-0.27473 0.18331 0.0916 0.27497 0.0916 0.45829 0.0916 0.36664 0 0.4583-0.0916 0.64162-0.18315 0.18332-0.0916 0.36664-0.0916 0.4583 0 0 0 0.0917 0 0.0917 0.0916-0.0917 0.18315 0 0.18315 0 0.27473 0 0.0916-0.18332 0-0.27498 0-0.0917 0-0.0917 0-0.0917 0.0916-0.0917 0-0.18332 0.0916-0.18332 0.18316 0 0 0.0917-0.0916 0.18332-0.0916 0 0.0916 0.0917 0.18315 0.18332 0.0916-0.0917 0.0916-0.18332 0.18315-0.0917 0.18315h0.0917c0 0.0916 0 0.18315 0.0917 0.18315v-0.18315h0.0917c0.0917 0 0.0917-0.18315 0.18332-0.18315 0 0.0916-0.0917 0.18315 0 0.18315h0.0917c0 0.0916 0.0917 0.0916 0.18332 0.0916 0 0-0.0917 0-0.0917-0.0916l0.0917-0.0916c0.0917-0.18315-0.0917-0.18315-0.0917-0.27473 0-0.0916 0.18331 0 0.18331-0.18315 0 0 0-0.0916-0.0917-0.0916 0.0917 0 0.0917 0 0.18331-0.0916-0.45829 0.27473-0.36663 0.0916-0.36663 0m-5.5912-1.3736s0.18332 0.0916 0.27498 0.0916l-0.0917 0.0916c-0.0917 0-0.18332-0.0916-0.18332-0.18315m-0.18332-0.0916c0 0.0916-0.0917 0.0916-0.18331 0.0916-0.0917-0.0916 0-0.0916-0.0917-0.18316 0.0917 0 0.27497 0.0916 0.27497 0.0916m-0.27497 0.64103c0-0.0916 0.0917-0.0916 0 0 0.18331-0.0916 0.18331-0.0916 0.18331-0.18315 0-0.0916 0-0.0916-0.0917-0.0916 0.0917 0 0.0917 0 0.0917-0.0916h-0.0917v-0.0916h0.0917l0.27498 0.0916v0.0916 0.0916s0-0.0916-0.0917-0.0916v0.0916c-0.0917 0-0.0917-0.0916-0.18332 0v0.1832c0 0.0916-0.0917 0.0916-0.18331 0v0m-0.18332-0.3663zm0.0917-0.27473m1.0999 1.74"/><path d="m356.14 142.92c0 0.0916 0.0917 0.0916 0.18332 0.0916 0.91659 0.27473 2.0165-0.45788 2.5665-0.27473-0.73327-0.27473-1.1916 0.18315-1.9248 0 0.4583 0 0.82494-0.0916 0.9166-0.18315-0.36664 0.18315-1.1916-0.0916-1.6499 0.0916h-0.0917c-0.54996 0-0.9166 0-0.9166 0.3663 0 0.73261 1.9248 0.27473 2.5665 0.27473s0.54996 0.0916 0.54996 0.18315c0 0.18315-0.73328 0.18315-1.0083 0.18315-0.54996 0-2.1082-0.27472-3.1164-0.0916 0.0917-0.18315 0.27498-0.36631 0.18332-0.45788 0.0917 0 0.18331-0.0916 0.18331-0.18316-0.0917-0.0916-0.0917-0.0916-0.18331-0.0916v-0.0916s0-0.0916-0.0917-0.0916c0 0-0.0917-0.0916-0.18332-0.18316-0.0917-0.0916-0.18332-0.0916-0.18332-0.0916h-0.0917c-0.0917 0-0.0917 0-0.0917 0.0916 0 0-0.0917-0.0916-0.18332-0.0916 0 0.0916-0.0917 0.18315 0 0.27473-0.0917 0-0.18332 0.18315-0.27498 0.18315 0 0.0916 0.0917 0.0916 0.0917 0.0916-0.0917 0.0916-0.0917 0.27473-0.18332 0.27473l0.0917 0.0916c0 0.0916 0 0.18315-0.0917 0.27473h-0.0917c-0.0917 0-0.18332 0-0.36664-0.0916s-0.18332-0.18315-0.18332-0.27473c0-0.0916 0.0917-0.27473 0.0917-0.3663v-0.0916c0-0.0916-0.0917-0.18315-0.18331-0.0916l0.0916 0.0916-0.0916 0.0916v0.0916 0.0916c0-0.0916-0.0917-0.18315-0.18332-0.18315h-0.0917c0-0.0916-0.0917-0.18315-0.18332-0.0916h0.0917v0.0916c0 0.0916 0.0917 0.0916 0.18332 0.0916-0.18332-0.0916-0.27498 0-0.27498 0.0916v0.0916c-0.0917 0-0.0917 0.0916 0 0.18315v-0.0916h0.0917 0.0917c-0.0917 0.0916-0.0917 0.18316 0.0917 0.27473 0 0.18315-0.27498 0.18315-0.27498 0-0.18332 0.27473 0.0917 0.45788 0.36664 0.27473 0 0 0 0.0916 0.0917 0.0916 0 0.0916 0 0.0916 0.0916 0.0916v-0.0916s0-0.0916 0.27498 0.0916c0 0 0 0.0916 0.0917 0.0916h0.18332v0.3663h-0.4583c-0.0917 0.0916-0.45829 0.18315-0.54995 0.0916 0-0.0916 0-0.0916-0.0917-0.18315 0-0.0916-0.0917-0.0916-0.0917-0.0916h-0.0917c-0.0917-0.0916-0.18332-0.0916-0.27498 0 0 0 0.0917 0 0.0917 0.0916v0.0916s0 0.0916 0.18332 0.18315h-0.0917c-0.0917-0.0916-0.0917-0.18315-0.18332-0.0916h-0.0917c-0.0917 0-0.27498 0.0916-0.18332 0.18315 0 0 0-0.0916 0.0917-0.0916v0.0916c0 0.0916 0.0917 0.18315 0.27498 0-0.0917 0.0916-0.18332 0.18315-0.0917 0.27473h0.0917c0 0.0916 0.0917 0.18315 0.18332 0.18315 0 0-0.0917-0.0916-0.0917-0.18315h0.0917c0.0917 0 0.0917-0.18315 0.0917-0.18315 0 0.0916 0 0.18315 0.18332 0.18315 0.0917 0 0.18332-0.0916 0.18332-0.18315 0 0 0.0917 0.0916 0.0917 0.18315l0.0917-0.0916c0 0.0916 0 0.18316-0.0917 0.18316 0.0917 0 0.18331-0.0916 0.18331-0.18316 0 0 0 0.0916 0.0917 0.0916h0.27498v0.0916s0-0.0916 0.0917-0.0916c0 0 0 0.0916 0.0917 0.18315 0-0.3663 0.27498-0.27473 0.4583-0.3663 0 0 0 0.0916-0.0917 0.0916 0.18332 0.0916 0.4583-0.18315 0.54996-0.3663l0.0917-0.0916v0.0916c0.18332 0 0.18332-0.18315 0.27498-0.18315 0.64161 0.0916 0.18331-0.54946 1.1916-0.36631 0.0917 0 0.18332-0.0916 0.27498-0.0916-0.0917 0.0916-0.0917 0.45788 0.0917 0.45788 0.0917 0 0.18332 0.0916 0.27498 0.0916-0.0917 0-0.18332 0-0.18332 0.0916-0.18332 0.18315-0.18332-0.36631-0.4583-0.27473h-0.0917c-0.0917 0-0.18332 0.0916-0.18332 0.18315 0 0 0.0917-0.0916 0.18332-0.0916v0.0916s0 0.0916 0.0917 0.0916h0.0917c0 0.0916-0.27498-0.0916-0.27498 0.18315v0.0916c0 0.0916 0.0917 0.18315 0.18332 0.0916l-0.0917-0.0916h0.0917v0.0916 0.0916c0 0.0916 0.0917 0.18315 0.27498 0.0916 0 0-0.0917 0-0.0917-0.0916h0.0917v-0.0916h0.0917c0 0.0916 0.0917 0.0916 0.18332 0.0916 0.18332-0.0916 0-0.18315 0.18332-0.18315h0.0917 0.36663c0-0.0916 0-0.27473-0.0917-0.36631-0.0917 0 0-0.0916-0.0917-0.27473 0.0917 0.0916 0.27498 0.0916 0.4583 0.0916 0.36664 0 0.4583 0 0.64162-0.0916s0.36664-0.0916 0.4583 0c0 0 0.0917 0 0 0.0916-0.0917 0.18315 0 0.18315-0.0917 0.27473-0.0917 0.0916-0.18332 0-0.27498 0h-0.0917c-0.0917 0-0.18332 0.0916-0.18332 0.18315 0 0 0.0917-0.0916 0.18332-0.0916 0 0.0916 0.0917 0.18316 0.18332 0.0916-0.0917 0.0916-0.27498 0.18315-0.18332 0.18315h0.0917c0 0.0916 0 0.18316 0.0917 0.18316 0 0 0-0.0916 0.0917-0.18316h0.0917c0.0917 0 0.0917-0.18315 0.18332-0.18315-0.0917 0.0916-0.0917 0.18315 0 0.18315h0.0917c0 0.0916 0.0917 0.0916 0.18332 0.0916 0 0-0.0917 0-0.0917-0.0916l0.0917-0.0916c0.0917-0.18316-0.0917-0.18316 0-0.27473 0-0.0916 0.18331 0 0.27497-0.18315 0 0 0-0.0916-0.0917-0.0916 0.0917 0 0.0917 0 0.18332-0.0916-0.0917 0-0.0917-0.0916-0.0917-0.18315 0.0917 0 0.0917-0.0916 0.0917-0.18315-0.0917 0.0916-0.18332 0.0916-0.18332 0 0 0 0-0.0916-0.0916-0.0916-0.18332 0-0.54996 0-0.9166-0.0916 0.4583 0 1.2832-0.0916 1.2832-0.36631 0-0.18315 0-0.3663-0.73327-0.3663-0.73328 0-2.3832 0.27473-2.3832-0.18315-0.4583 0.27472-0.0917 0.27472 0.27498 0.27472m-2.3832 0c0 0.0916-0.0917 0.0916-0.18332 0.0916-0.0917-0.0916 0-0.0916-0.0917-0.18315 0.0917 0 0.18332 0.0916 0.27498 0.0916m0.18332 0.45789c-0.0917 0-0.0917-0.0916 0 0-0.18332-0.0916-0.0917-0.0916 0 0h-0.18332v0.0916 0.0916s-0.0917 0.0916-0.18332 0.0916c-0.0917 0-0.0917-0.0916-0.0917-0.18315 0-0.0916 0.0917-0.0916 0.0917-0.0916 0.0917 0 0.0917 0 0.0917-0.0916s0-0.0916-0.0917-0.0916c0.0917 0 0.0917 0 0.0917-0.0916h-0.0917v-0.0916h0.0917l0.27498 0.0916v0.27473 0m0.0917-0.18316c-0.0917 0-0.0917-0.0916-0.0917-0.18315 0 0 0.18332 0.0916 0.27498 0.0916-0.0917 0-0.0917 0.0916-0.18332 0.0916"/><path d="m355.32 146.36c0 0.0916 0.0917 0.0916 0.18332 0.0916 0.91659 0.27473 2.0165-0.45788 2.5665-0.27472-0.73328-0.27473-1.1916 0.18315-1.9248 0 0.45829 0 0.82493-0.0916 0.91659-0.18316-0.36664 0.18316-1.1916-0.18315-1.6499 0.0916 0 0-0.0917 0-0.0917 0.0916-0.27498 0.0916-0.54996 0.18315-0.54996 0.45788 0 0.64103 2.3832 0.0916 2.3832 0.3663 0 0.18315-0.4583 0.36631-1.0999 0.36631-0.4583 0-1.2832-0.27473-2.3832-0.0916 0.0917-0.18315 0.27498-0.45788 0.18332-0.54946 0.0917 0 0.18332-0.0916 0.18332-0.18315-0.0917-0.0916-0.0917-0.0916-0.18332-0.0916v-0.0916s0-0.0916-0.0917-0.0916c0 0-0.0917-0.0916-0.18332-0.0916-0.0917-0.0916-0.18332 0-0.18332-0.0916h-0.0917s-0.0917 0-0.0917 0.0916c0 0-0.0917-0.0916-0.18332-0.0916 0 0.0916-0.0917 0.18315 0 0.27473-0.0917 0-0.18332 0.18315-0.27498 0.18315 0 0.0916 0.0917 0.0916 0.0917 0.0916-0.0917 0.0916-0.0917 0.27472-0.18332 0.27472l0.0917 0.0916c0 0.18315-0.0917 0.45788 0 0.54946-0.18332-0.18315-0.36664-0.45788-0.54995-0.54946-0.18332-0.0916-0.18332-0.18315-0.18332-0.27473 0-0.0916 0.0917-0.18315 0.0917-0.3663v-0.0916c0-0.0916-0.0917-0.0916-0.18332-0.0916l0.0917 0.0916-0.0917 0.0916v0.0916 0.0916c0-0.0916-0.0917-0.18315-0.18332-0.18315h-0.0917c0-0.0916-0.0917-0.18315-0.18332-0.0916h0.0917v0.0916c0 0.0916 0.0917 0.0916 0.18332 0.0916-0.18332-0.0916-0.18332 0-0.27498 0.0916v0.0916c-0.0917 0-0.0917 0.0916 0 0.18315v-0.0916h0.0917 0.0917c-0.0917 0.0916-0.0917 0.18315 0.0917 0.18315 0 0.18316-0.27498 0.18316-0.27498 0-0.18332 0.18316 0.0917 0.36631 0.27498 0.27473 0 0 0 0.0916 0.0917 0.0916 0 0.0916 0 0.0916 0.0917 0.0916v-0.0916s0 0.27473 0.27498 0.45788c0.0916 0.18315 0.18331 0.27473 0.36663 0.27473 0.0917 0.0916 0.0917 0.18315 0.0917 0.18315h-0.45829c-0.0917 0-0.18332 0.0916-0.27498 0.0916-0.0917 0-0.18332 0-0.27498-0.0916 0 0 0-0.0916-0.0917-0.18315 0-0.0916-0.0917-0.0916-0.0917-0.0916h-0.0917c-0.0917-0.0916-0.18332-0.0916-0.18332 0 0 0 0.0917 0 0.0917 0.0916v0.0916s0 0.0916 0.18332 0.18316h-0.0917c-0.0917-0.0916-0.0917-0.18316-0.18332-0.0916h-0.0917c-0.0917 0-0.18332 0.0916-0.18332 0.18315 0 0 0-0.0916 0.0917-0.0916v0.0916c0 0.0916 0.0917 0.18315 0.27498 0-0.0917 0.0916-0.18332 0.18315-0.0917 0.27473 0 0.0916 0.0917 0.18315 0.18332 0.18315 0 0-0.0917-0.0916-0.0917-0.18315h0.0917c0.0917 0 0.0917-0.18315 0.0917-0.18315 0 0.0916 0 0.18315 0.18332 0.18315 0.0917 0 0.18332-0.0916 0.18332-0.18315l0.0917 0.0916s0.0917 0 0.0917-0.0916c0 0.0916 0 0.0916-0.0917 0.18315 0 0 0.18332-0.0916 0.18332-0.18315v0.0916h0.27497v0.0916s0-0.0916 0.0917-0.0916c0 0 0 0.0916 0.0917 0.18316 0-0.27473 0.18332-0.18316 0.36664-0.27473 0 0 0 0.0916-0.0917 0.0916 0.0917 0 0.27498-0.0916 0.27498-0.18315 0 0 0.18332-0.18315 0.18332-0.54945h0.0917c0.27498 0 0.36664-0.18316 0.64162-0.18316-0.0917 0.0916-0.0917 0.27473-0.0917 0.36631 0 0.0916 0.18332 0.27473 0.27498 0.3663-0.0917 0-0.18332 0-0.18332 0.0916-0.18332 0.0916-0.18332-0.27473-0.4583-0.18315l-0.0917 0.0916c-0.0917 0-0.18332 0.0916-0.18332 0.18315 0 0 0.0917-0.0916 0.18332-0.0916 0 0 0 0.0916 0.0917 0.0916h0.0917c0 0.0916-0.27498-0.0916-0.18332 0.18316v0.0916c0 0.0916 0.0917 0.18316 0.18332 0.0916l-0.0917-0.0916h0.0917v0.0916 0.0916c0 0.0916 0.0917 0.18315 0.27498 0.0916 0 0-0.0917 0-0.0917-0.0916h0.0917v-0.0916h0.0917s0.0917 0.0916 0.18332 0.0916c0.18331-0.0916 0-0.18316 0.18331-0.18316h0.0917c0.0917 0 0.18332 0.0916 0.27498 0 0-0.0916 0-0.27473-0.0917-0.3663-0.0917 0 0.0917-0.45788-0.27498-0.73261 0.18332 0 0.73328 0.0916 0.82494 0 0.18332 0 0.36664 0.18315 0.36664 0.18315v0.0916c-0.18332 0.0916-0.0917 0.0916-0.18332 0.18315 0 0-0.0917-0.0916-0.18332-0.18315h-0.0917c-0.0917 0-0.18332 0-0.18332 0.0916h0.18332v0.0916c-0.0917 0-0.27498 0-0.18332 0.0916v0.0916c-0.0917 0-0.0917 0.0916 0 0.18315 0 0 0-0.0916 0.0917-0.0916v0.0916s0.0917-0.0916 0.18332-0.0916c-0.0917 0-0.18332 0.0916-0.0917 0.18315v0.0916c0 0.0916 0 0.18315 0.0917 0.18315v-0.0916h0.0917c0.18332-0.0916 0.0917-0.18315 0.0917-0.27473 0.0917-0.0916 0.0917 0.0916 0.27498 0v-0.0916s0.0917 0.0916 0.0917 0c-0.0917-0.0916 0-0.0916 0.0917-0.18315 0 0 0.0917 0 0.18332-0.0916-0.0917 0-0.27498-0.0916-0.18332-0.0916 0.18332-0.0916 0.18332-0.18315 0.0917-0.27472-0.0917-0.18316-0.36664-0.18316-0.36664-0.36631h0.27498c0.82493 0 1.3749-0.18315 1.2832-0.45788 0-0.54946-2.4748 0-2.4748-0.3663 0.36664-0.18316 0.4583-0.27473 0.64162-0.27473m-1.7415 0s0.18332 0.0916 0.27498 0.0916c-0.0917 0-0.0917 0.0916-0.18332 0.0916-0.0917 0-0.0917-0.0916-0.0917-0.18315m-0.18332 0c0 0.0916-0.0917 0.0916-0.18332 0.0916-0.0917-0.0916 0-0.0916-0.0917-0.18315 0.0917 0 0.27498 0 0.27498 0.0916m-0.18332 0.54945v0c0.0917-0.0916 0.18332-0.0916 0.18332-0.0916 0-0.0916 0-0.0916-0.0917-0.0916 0.0917 0 0.0917 0 0.0917-0.0916h-0.0917v-0.0916h0.0917l0.18332 0.0916v0.0916 0.0916s0-0.0916-0.0917-0.0916v0.0916h-0.0917v0.1832c0 0.0916-0.0917 0.0916-0.18332 0.0916-0.0917-0.0916-0.0917-0.18316 0-0.18316"/><path d="m316.04 104.08c0-0.36631-0.27498-0.54946-0.54996-0.54946-0.36664 0-0.54996 0.27473-0.54996 0.54946 0 0.27472 0.27498 0.54945 0.54996 0.54945s0.54996-0.27473 0.54996-0.54945"/><path d="m315.79 102.45c0-0.3663-0.27498-0.54946-0.54996-0.54946-0.36664 0-0.54996 0.27473-0.54996 0.54946s0.27498 0.54946 0.54996 0.54946c0.36664 0.0916 0.54996-0.18315 0.54996-0.54946"/><path d="m316.18 101.75c0.36663 0 0.54995-0.27473 0.54995-0.54946 0-0.27472-0.27498-0.54945-0.54995-0.54945-0.36664 0-0.54996 0.27473-0.54996 0.54945 0 0.27473 0.18332 0.54946 0.54996 0.54946"/><path d="m317.72 101.71c0.36664 0 0.54996-0.27473 0.54996-0.54946 0-0.3663-0.27498-0.54945-0.54996-0.54945-0.36664 0-0.54996 0.27473-0.54996 0.54945 0 0.27473 0.27498 0.54946 0.54996 0.54946"/><path d="m324.4 100.61c0.27498 0.18315 0.64162 0.18315 0.82493 0 0.18332-0.18315 0.18332-0.64103 0-0.82418-0.27497-0.27473-0.64161-0.27473-0.82493 0-0.18332 0.18315-0.18332 0.54945 0 0.82418"/><path d="m324.27 99.359c0.27498-0.18315 0.27498-0.64103 0-0.82418-0.27498-0.18315-0.64162-0.27473-0.82494 0-0.27498 0.18315-0.18332 0.64103 0 0.82418 0.27498 0.18315 0.64162 0.18315 0.82494 0"/><path d="m322.73 99.089c0.18332-0.18315 0.18332-0.64103 0-0.82418-0.27497-0.27473-0.64161-0.27473-0.82493 0-0.18332 0.27473-0.18332 0.64103 0 0.82418 0.18332 0.27473 0.54996 0.27473 0.82493 0"/><path d="m321.36 100.07c0.18332-0.18316 0.18332-0.64104 0-0.82419-0.27498-0.18315-0.64162-0.18315-0.82494 0-0.18332 0.27473-0.18332 0.64103 0 0.82419 0.27498 0.27473 0.64162 0.27473 0.82494 0"/><path d="m317.6 99.241 0.4583 1.0073 0.54996-0.73261h0.0917c0.0917 0.3663 0.0917 0.91576 0.0917 1.2821 0 0.45789 0.36664 0.73261 0.73328 0.73261s0.73328-0.3663 0.73328-0.73261c0-0.27472-0.18332-0.54945-0.36664-0.64103-0.27498-0.18315-0.64162-0.54946-0.82494-0.73261v-0.09158l1.0083 0.09158-0.36664-1.0989-0.73328 0.64103-0.0917-1.0989-1.0082 0.3663 0.64162 0.82418v0.09158z"/><path d="m324.42 101.15c0.18332 0.3663 0.27498 0.54945 0.36664 0.82418-0.18332-0.0916-0.36664-0.27473-0.64162-0.54946l0.0917 1.3736c0.18332-0.27473 0.27498-0.36631 0.4583-0.45788-0.0917 0.91576-0.36664 1.2821-0.73328 1.2821-0.36664 0.0916-0.64162-0.18315-0.73328-0.45788-0.0917-0.3663 0.27498-0.64103 0.64162-0.27473 0.0917-0.82418-0.64162-0.82418-0.91659-0.45788 0.36663-0.82418 0.18332-1.2821-0.4583-1.7399-0.4583 0.7326-0.27498 1.1905 0.27498 1.8315-0.54996-0.27473-1.0083 0.18315-0.54996 0.82418 0.0917-0.54945 0.54996-0.3663 0.64162 0 0.0917 0.36631-0.27498 0.82419-0.82494 1.0073-0.82494 0.27473-1.0999-0.27473-1.2832-0.73261 0.18332-0.0916 0.64161-0.0916 1.0999 0.27473l-0.36664-1.3736c-0.18332 0.45788-0.45829 0.64103-0.82493 0.82418 0-0.3663 0.27498-1.1905 0.27498-1.1905l-1.6499 0.64104s0.73328 0.3663 1.0083 0.64103c-0.36664 0.0916-0.64162 0.18315-1.0999 0l0.64162 1.2821c0.0917-0.54946 0.36664-0.91577 0.64162-0.91577 0.18332 0.45788 0.36664 1.0073-0.4583 1.4652-0.54996 0.27473-1.0999 0.18315-1.2832-0.0916-0.18332-0.36631 0-0.82419 0.45829-0.45788-0.0917-0.73261-0.73327-0.73261-0.91659-0.18316 0-0.82418-0.18332-1.2821-1.0083-1.4652-0.18332 0.82418 0.0917 1.2821 0.82494 1.5568-0.4583-0.0916-0.9166 0.3663-0.27498 0.91576 0-0.45788 0.4583-0.54946 0.64162-0.18315 0.18332 0.27473 0.0917 0.64103-0.18332 0.82418-0.27498 0.18316-0.73328 0.18316-1.4666-0.45788 0.18331-0.0916 0.36663-0.0916 0.73327 0l-0.82493-1.0989c0.0917 0.3663 0 0.64103-0.0917 0.82418-0.18332-0.18315-0.27498-0.3663-0.36664-0.82418l-0.64162 0.54946c0.64162 0.3663 1.3749 1.0073 2.1998 2.1978 0.9166-0.54945 2.5665-1.3736 3.5747-1.8315 1.0083-0.45788 2.7498-1.0073 3.8497-1.1905-0.18331-1.4652-0.0916-2.381 0.0917-3.1136z"/><path d="m337.35 138.47c0.27498-0.64103-0.9166-1.3736-1.0999-2.1978-0.18332-0.82418 0-1.74-1.0999-2.9304-1.0083-1.1905-4.4913-4.9451-5.5912-6.1356 0.27497 0 0.91659-0.18315 1.5582 0.45789 0.36664 0.3663 1.0999 1.0989 1.8332 1.7399 0.91659-2.381 2.1082-4.1209 3.758-6.044 0.18332-0.27473 0.4583-0.45788 0.64162-0.73261-0.64162 0.18315-1.5582 0.3663-2.1082 0.73261 0-1.0073 0-1.8315-0.64162-2.5641 0.27498-1.4652 0-3.2052-3.2081-5.3114 1.6499 0.36631 2.6581 1.9231 3.9414 0.73261-1.0999 0-1.1916-2.4726-5.3163-4.5788 1.5582 0 2.7498 2.4726 4.583 1.0989-1.7415-0.18316-2.2915-3.2052-5.4079-4.2125 1.0999 0.0916 2.1998 0.64104 3.1164-0.64103-1.0999 0.27473-1.7415-0.73261-2.8414-0.82418 0.45829-1.3736 0.36663-2.1978-0.0917-3.1136-0.82494 0.0916-1.6499 0.27473-2.1998 0.82418-0.0917-0.73261-0.82494-0.73261-1.5582-0.73261 0 0.27473 0.18332 0.73261-0.18331 0.82419-0.54996 0.0916-2.3832 0.64103-3.8497 1.1905-1.3749 0.54946-3.0248 1.5568-3.4831 1.9231-0.27498 0.18315-0.54996-0.27473-0.73328-0.45788-0.45829 0.45788-1.0082 1.0073-0.64161 1.5568-0.82494 0.0916-1.6499 0.27473-2.3832 0.82419 0 0.91576 0.73328 1.8315 1.9248 2.2894-1.9248 1.9231-0.18332 3.663-1.8332 5.3114 2.3832 0.0916 1.9248-3.2052 3.1164-3.663-0.0917 2.2894-1.3749 2.7473-1.3749 5.2198 0 1.3736 0.82494 2.7473 0.0917 3.663 2.0165-0.54945 1.4666-4.9451 2.6581-6.2272 0.18332 0.73261 0.0917 1.4652-0.18332 2.1978-0.73328 2.0147 0.0917 4.8535-1.0083 5.6777 2.0165-0.18315 2.2915-3.3883 3.9414-4.5788-1.4666 2.9304-2.8414 9.066-5.0413 12.18-3.3914 4.6704-5.4996 10.257-8.616 10.257-1.3749 0-2.4748-0.82419-2.4748-2.5641 0-5.2198 9.0743-8.8829 9.0743-14.469 0-2.4726-2.0165-3.4799-3.2998-3.4799-0.82493 0-1.9248 0.45788-2.7498 1.0989-0.36664-0.18315-0.73328-0.27473-1.0999-0.27473-3.2081 0-2.3832 5.7693-5.1329 5.6777 1.0999 0.64104 3.0248-0.54945 4.1247-2.1978-0.4583 3.7546-5.8662 2.7473-5.4079 7.2345 0.73328-3.4799 9.2576-3.022 9.2576-8.3334 0-0.64103-0.27498-1.0989-0.73328-1.4652 0.64162-0.3663 1.2832-0.54945 1.8332-0.54945 1.0083 0 1.9248 0.73261 1.9248 2.2894 0 4.6704-8.9826 8.6997-8.9826 14.469 0 1.0073 0.27498 1.8315 0.73327 2.381-0.64161 0.27473-1.2832 0.18315-1.8332-0.45788-0.0917 1.4652 2.1082 2.381 3.3914 1.6484 0.27498 0.0916 0.64161 0.18315 0.91659 0.18315-0.36664 1.0989-1.7415 1.4652-2.4748 1.3736 2.1998 1.74 6.0495-0.54946 5.8662-2.4726 1.7415-1.3736 2.8414-3.8462 4.1247-5.403-0.0917 0.36631-0.18332 0.73261-0.18332 1.0989-1.2832 2.381-2.4748 4.3956-2.8414 7.5092-0.27498 2.5641-1.5582 4.9451-3.3914 4.9451-0.36664 0-1.0083-0.54946-1.3749-0.27473-0.54995 0.45788 0 1.0073 0 1.4652 0 0.73261-1.3749 1.4652-1.3749 3.7546 0 1.0073 0.54996 2.1978 0.36664 2.9304 0.54996-0.27473 1.3749-1.2821 1.6499-2.4726 0.64162 3.022-1.2832 2.8389 0.0917 5.4946 0.18332-0.91576 1.0083-1.2821 1.5582-0.91576 0.54996 0.3663 0.27498 0.64103-0.0917 1.0073-0.36664 0.3663-0.73327 2.381 1.0083 2.2894-0.36664-0.18315-0.36664-0.73261 0.54996-0.91576 1.2832-0.27473 1.6499 0.3663 2.9331 0.3663 0.82494 0 1.0083-1.0989 1.7415-1.0989 0.64162 0 0.64162 0.54946 0.4583 0.91576 1.0083-0.27473 1.2832-0.82418 1.2832-1.4652 0-0.54945-0.45829-0.91576-0.0917-1.1905 0.36664-0.18315 1.5582 0 1.0999 1.0073 0.64162-0.0916 1.0082-0.54946 1.0082-1.3736 0-0.73261-0.91659-1.1905-1.6499-1.0989-0.18332-0.45788-0.82493-0.7326-1.4666-0.7326-1.4666 0-1.2832 1.1905-2.2915 1.1905-1.6499 0-3.2081-2.1063-3.2081-5.6777 0-1.9231 2.0165-2.381 3.4831-3.022 1.4666-0.64103 3.9414-2.1978 5.4996-4.762 1.1916-2.0147 1.1916-4.2125 1.0999-6.7766 2.0165 1.1905 2.2915 2.8389 2.2915 4.0294 0 1.5568-0.82494 2.1978-1.4666 2.4726-0.54995 0.27472-0.73327 0.18315-0.82493 0.45788-0.0917 0.3663 0.18332 0.64103 0.45829 0.73261 0.73328 0.3663 0.54996 1.0989 0.82494 1.8315 0.18332 0.73261 0.9166 1.9231 2.0165 2.8389 0.0917-0.45788 0.0917-1.1905 0-2.1978 1.5582 0.73261 0.27498 3.9378 3.3914 3.9378-0.54995-0.3663-0.36663-1.0989-0.0916-1.2821 0.27497-0.18315 0.73327 0.18315 1.2832 1.0073 0.54996 0.82418 0.4583 0.73261 1.8332 0.73261 1.4666 0 0.82494-0.45789 1.5582-0.45789 0.73328 0 0.73328 0.91577 0.27498 1.5568 1.2832-0.36631 1.6499-1.3736 1.1916-2.381 1.0999-0.64103 1.7415 0.27473 1.9248 0.91576 1.0999-1.0989 0-2.4726-0.9166-2.5641 0-0.36631-0.36664-0.82419-0.82494-0.91576-0.45829 0-0.91659-0.0916-1.4666 0-0.54996 0-0.82493 0.82418-1.4666 0.82418-1.9248 0-5.6829-3.4799-5.6829-4.9451s3.5747-2.381 3.5747-4.6704c0-3.022-2.9331-4.0294-5.4996-5.9524 0.91659-1.0073 3.4831-1.2821 4.9496-0.54946 0.18332-0.82418 0.73328-0.64103 0.9166-2.1062 0.54995 1.2821 0 2.381 0.54995 2.9304 0.4583-0.64103 1.4666-0.54946 1.4666-2.1062 0.36664 1.0073-0.4583 2.4726 0.36664 3.2052 0.0917-0.82418 0.64161-1.0073 0.91659-1.0073s0.54996 0.18315 0.54996 0.73261c0 1.1905-1.4666 0.64103-1.4666 2.0147 0 0.54946 0.73327 0.73261 0.73327 1.0989 0 0.36631-0.54996 0.91576-1.2832 0.45788 0.27498 0.54946 0.73327 1.0073 1.3749 1.0073s1.3749-0.54946 1.6499-1.1905c0.36664 0.82419 0.0917 1.8315-0.54995 1.9231 0.64161 0.36631 2.1998 0 2.0165-2.0147 0.91659 0.18315 1.3749 0.7326 0.82493 1.8315 0.73328-0.18315 1.3749-0.54946 1.3749-1.2821 0-0.54945-0.64162-0.73261-0.36664-1.5568m-17.049-27.198c-0.82494 0.0916-0.82494-0.73261-2.2915-1.0989 1.0083-0.18316 2.2915-0.73261 3.4831-1.1905 0.27498 1.0073-0.18331 2.1978-1.1916 2.2894m5.8662 6.1356c-1.0999 0.45788-1.9248-0.45788-2.1082-1.0989-0.18332-0.64104-0.36664-1.1905-0.0917-1.3736 0.4583-0.45788 0.64162-0.82418 0.36664-1.3736-0.27498-0.64103-1.0082-0.3663-1.7415-0.18315 0.36664-0.64103 0.36664-1.0989-0.0917-1.0073-0.54996 0.0916-0.54996 1.0073-0.9166 0.82419-0.27497-0.0916-0.0917-0.64104-0.0917-0.91576 0-0.36631 0.27498-0.54946 0.64162-0.73261l3.0248-1.1905c0.36663-0.18315 0.64161-0.18315 0.91659 0.0916 0.18332 0.18316 0.73328 0.45788 0.54996 0.73261s-0.82494-0.3663-1.2832 0c-0.36664 0.27473-0.0917 0.54946 0.64161 0.82419-0.64161 0.3663-1.3749 0.64103-1.0999 1.3736 0.18332 0.54946 0.54996 0.73261 1.1916 0.73261 0.36664 0 0.54996 0.45788 0.9166 1.0989 0.18332 0.64104 0.27498 1.74-0.82494 2.1978m0.18332-8.5166c-0.82494 0.64103-1.9248 0.0916-2.3832-0.82419 1.0999-0.45788 2.4748-1.0073 3.2998-1.5568-0.82494 1.2821-0.27498 1.8315-0.9166 2.381"/><path d="m394.97 153.04c0 1.3736 1.0999 2.5641 2.5665 2.5641 1.3749 0 2.5665-1.0989 2.5665-2.5641s-1.0999-2.5641-2.5665-2.5641-2.5665 1.0989-2.5665 2.5641m0.64162 0c0-1.0073 0.82494-1.9231 1.9248-1.9231 1.0083 0 1.9248 0.82419 1.9248 1.9231 0 1.0989-0.91659 1.8315-2.0165 1.8315-1.0082 0-1.8332-0.82418-1.8332-1.8315"/><path d="m385.5 155.31c-0.36664 0.27473-0.54995 0.54946-0.64161 0.91576-0.0917 0.45788 0.0917 0.91576 0.36663 1.2821 0.27498 0.3663 0.73328 0.54945 1.2832 0.64103 0.54996 0.0916 1.0082 0 1.4666-0.18315 0.4583-0.27473 0.73328-0.64104 0.82494-1.0989 0.18332-0.91576-0.54996-1.7399-1.6499-1.9231-0.64162 0-1.2832 0.0916-1.6499 0.3663m1.0999 2.2894c-0.73328-0.0916-1.1916-0.64103-1.0999-1.1905 0.0917-0.27473 0.18332-0.45788 0.36664-0.54945 0.27498-0.18316 0.73328-0.27473 1.0999-0.18316 0.64161 0.0916 1.1916 0.54946 1.1916 1.0989v0.0916c-0.18332 0.54946-0.82494 0.91577-1.5582 0.73261"/><path d="m371.46 119.79c-0.82494 0.64103-1.0083 1.6484-0.54996 2.2894 0.54996 0.64103 1.5582 0.64103 2.3832 0.0916 0.4583-0.36631 0.73328-0.82419 0.73328-1.2821 0-0.3663 0-0.73261-0.27498-1.0073-0.18332-0.27472-0.54996-0.45788-0.9166-0.45788-0.36664-0.18315-0.91659 0-1.3749 0.36631m-0.0917 1.4652c0-0.36631 0.18332-0.73261 0.54996-1.0073 0.27497-0.18315 0.64161-0.36631 0.91659-0.27473 0.18332 0 0.36664 0.0916 0.4583 0.27473 0.0917 0.18315 0.18332 0.3663 0.0917 0.54945 0 0.27473-0.27498 0.64104-0.54996 0.82419-0.4583 0.3663-1.1916 0.3663-1.4666 0v-0.3663"/><path d="m382.46 151.12c-0.36664 0.3663-0.64161 0.91576-0.64161 1.5568v0.0916c0 0.54945 0.18332 1.0989 0.54995 1.4652 0.27498 0.27473 0.64162 0.45788 1.0083 0.45788s0.73327-0.18315 1.0082-0.45788c0.36664-0.3663 0.64162-0.91576 0.64162-1.5568 0-0.54946-0.18332-1.0073-0.4583-1.3736-0.27498-0.36631-0.73327-0.64103-1.1916-0.64103-0.27498 0-0.64162 0.18315-0.9166 0.45788m1.0083 2.9304c-0.27498 0-0.4583-0.18315-0.54996-0.27473-0.27498-0.27472-0.36664-0.64103-0.36664-1.0989s0.18332-0.82419 0.4583-1.0989c0.0917-0.0916 0.36664-0.27473 0.54996-0.27473 0.54995 0 1.0082 0.64103 0.91659 1.3736 0 0.45788-0.18332 0.82419-0.45829 1.0989-0.0917 0.0916-0.27498 0.27473-0.54996 0.27473m0 0.64103z"/><path d="m370.06 130.65c-0.36664 0.0916-0.73327 0.3663-0.82493 0.7326-0.36664 0.82419 0.0917 1.8315 1.0999 2.2894 0.54996 0.27473 1.0999 0.27473 1.6499 0.0916 0.36664-0.0916 0.73328-0.3663 0.82494-0.73261 0.18332-0.3663 0.18332-0.7326 0-1.0989-0.18332-0.45788-0.54996-0.91576-1.0999-1.1905-0.54995-0.27473-1.1916-0.27473-1.6499-0.0916m0.4583 2.4726c-0.64162-0.27473-1.0082-1.0073-0.73328-1.4652 0.0917-0.27473 0.36664-0.3663 0.4583-0.3663 0.36664-0.0916 0.73328-0.0916 1.0999 0.0916 0.36663 0.18316 0.64161 0.45788 0.82493 0.82419 0.0917 0.18315 0.0917 0.3663 0 0.64103s-0.36664 0.36631-0.4583 0.36631c-0.36663 0.0916-0.73327 0.0916-1.1916-0.0916"/><path d="m396.78 128.02c0.82493 2.2894 2.4748 3.1136 3.758 2.4726-2.8414-0.3663-0.54996-5.1283-4.1247-5.1283-0.18332 0-0.36664 0-0.54996 0.0916-0.64162-0.64104-1.2832-0.91576-2.3832-0.91576-1.5582 0-4.1247 1.4652-4.1247 4.4872 0 6.5019 7.6078 7.1429 7.6078 12.912 0 1.6484-1.2832 2.7473-2.7498 2.7473-1.2832 0-2.2915-1.4652-3.3914-3.663-0.54996-1.0989-1.6499-2.5641-2.7498-4.0294 0.36664 0.27473 0.73328 0.3663 1.0999 0.3663 0.36664 0 0.82494-0.0916 1.0999-0.3663 0.27498-0.27473 0.4583-0.64103 0.4583-1.0073v-0.0916c0-0.54946-0.18332-1.0073-0.64162-1.4652s-0.9166-0.73261-1.4666-0.73261c-0.36664 0-0.82494 0.0916-1.0999 0.3663-0.27498 0.27473-0.4583 0.64104-0.4583 1.0073v0.0916c0 0.18315 0 0.45788 0.0917 0.64103-1.6499-2.1062-3.1164-4.2125-3.1164-5.403 0-1.0073 0.73328-1.9231 1.5582-2.9304l0.27498 0.18315 0.18332-0.27472c0.27498-0.36631 0.91659-1.0073 2.2915-2.4726l0.0917-0.0916 0.27498-0.3663-0.82494-0.64103c0.18332-0.45788 0.36664-1.0073 0.54996-1.6484 0.27498 1.0073 0.82493 1.7399 1.5582 1.4652-0.4583-1.0989 0.4583-2.5641-0.18332-5.2198 0.64162 1.0073 1.5582 1.5568 2.1998 1.3736-1.6499-1.4652 0.4583-3.5715-1.6499-6.7766 0.73327 0.27473 1.1916 0.0916 1.5582-0.27472-2.0165-0.27473-1.0999-2.8389-4.583-3.7546 0.9166-0.18315 1.3749-0.64103 1.2832-1.0989-0.9166 0.64103-1.7415-1.2821-4.7663-1.1905-0.18332-1.0989-1.2832-2.381-2.4748-2.9304 0.18332 0.91576 0 1.6484-0.18332 2.381l-9.8992-9.7071c-0.27498-0.27473-0.4583-0.3663-0.54996-0.27473-0.0917 0.09158-0.0917 0.27473 0.0917 0.45788l8.5243 10.714c-0.64162 0.18316-1.2832 0.45788-1.9248 0.73261-0.4583 0.18316-0.73328 0.54946-0.73328 1.0989-1.5582 0.82418-2.9331 1.7399-3.6664 2.381-0.54995 0.45788-0.91659 0.54945-0.4583 1.6484 0.18332 0.3663-0.36663 1.3736 0.82494 0.64103 0.82494-0.45788 2.6581-1.4652 2.9331-0.82419 0.18332 0.36631-0.73328 0.73261-1.3749 1.0073-0.64161 0.27473-1.2832 0.73261-1.1916 1.0073 0.0917 0.27473 0.54996 0 0.64162 0.27473 0 0.27473 0.27497 0.54945 0.45829 0.54945 0.27498 0 0.54996-0.54945 0.73328-0.3663s-0.0917 1.3736-0.27498 1.6484c1.0083-0.0916 1.5582-1.0073 1.6499-1.74 0-0.73261 0.18332-0.91576 0.36664-1.0073 0.18332-0.0916 0.36664 0.7326 0.0917 1.2821 0.54996-0.0916 1.0083-0.82418 1.0083-2.0147 0.27497-0.18316 0.54995-0.36631 0.73327-0.36631 0.36664 0 1.0083 0.91576 1.9248 0.91576 1.6499 0 2.6581-1.3736 2.7498-2.0147 0.0917-0.54946 0-1.0073-0.27498-1.3736 0.64162 0.45788 0.82494 1.2821 0.82494 1.8315 0 2.381-4.2163 3.4799-5.9579 5.1283-0.0917 0.0916-0.0917 0.0916-0.18332 0.18315l-2.0165-0.7326-0.0917 0.45788s0 0.0916-0.0917 0.3663c-0.18332 0.64103-0.64162 2.1062-0.9166 2.9304l-0.0917 0.3663 0.18332 0.0916c-1.1916 1.5568-2.1082 3.2967-2.2915 5.1283-0.45829-0.45788-0.91659-0.91576-1.4666-1.2821 0.0917-0.18316 0.0917-0.36631 0.0917-0.54946 0-0.54946-0.0917-1.0073-0.4583-1.3736-0.27498-0.27473-0.54996-0.45788-0.91659-0.45788-0.36664 0-0.64162 0.0916-1.0083 0.3663-0.0917 0.0916-0.0917 0.0916-0.18332 0.18315-0.0917-0.0916-0.18332-0.0916-0.18332-0.18315-0.64161-0.54946-1.4666-1.0989-1.9248-1.6484-0.18332-0.27473-0.4583-0.3663-0.82493-0.3663h-0.9166c-0.27498 0-0.4583 0.18315-0.82494 0.54945-0.18331 0.18315-0.64161 0.45788-1.0999 0.91576 0.27498 0.27473 0.4583 0.45788 0.73328 0.73261 0.0917 0.18315 0.27498 0.27473 0.36663 0.45788 0.0917-0.0916 0.27498-0.18315 0.36664-0.27473 0.18332-0.18315 0.4583-0.18315 0.73328-0.18315s0.64162 0.18315 0.82494 0.54946c0.18331 0.27473 1.7415 2.381 3.1164 3.8462-0.18332 0.0916-0.27498 0.0916-0.4583 0.18315-0.54995 0.27473-1.8332 0.18315-2.3832 0.18315-0.54995-0.0916-0.64161-0.18315-1.0999 0.45788-0.18332 0.27473-0.36664 0.54946-0.54996 0.73261-0.18332 0.27473-0.36664 0.45788 0.0917 1.1905 0.54996 1.0073 2.0165 3.5715 2.5665 4.762 0.4583 1.1905 1.0082 1.3736 2.0165 1.74 0.91659 0.3663 2.4748 1.2821 2.6581 1.4652l0.0917-0.91576c-0.27498-0.27473-1.1916-0.64103-1.4666-0.73261-0.36664-0.0916-0.45829-0.27473 0-0.27473 0.36664 0 1.4666 0.36631 2.2915 0.73261-0.27498-0.91576-1.0999-1.8315-1.5582-2.381-0.64162-0.18315-1.3749-0.18315-1.6499 0 0 0.18316-0.0917 0.45789-0.36664 0.45789-0.27498 0-0.4583-0.18316-0.36664-0.45789 0.0917-0.27472 0.4583-0.3663 0.36664-0.82418-0.0917-0.54946-0.73328-0.54946-1.0999-0.64103-0.54995-0.82419-1.1916-2.0147-1.5582-2.4726-0.27498-0.45788-0.0917-0.73261 0.0917-0.91576 0.4583-0.3663 1.4666 0.18315 3.4831 0.3663 0.73328 0 1.5582 0.0916 2.4748 0.0916 0.27498 2.381 1.1916 4.5788 4.4913 5.403 1.5582 0.36631 3.2081 1.5568 3.758 3.1136-6.5078-0.0916-7.5161 2.381-7.5161 4.8535 0 2.7473 2.2915 2.5641 2.2915 4.5788 0 1.74-5.4996 2.4726-7.1494 2.7473-1.3749 0.18315-2.1998 0.54945-2.8414 1.1905-0.64162 0.64104-1.3749 1.2821-2.5665 2.5641 0 0 0.54996 0.0916 1.0082 0.0916l0.9166-1.1905c0.27498-0.3663 0.4583-0.73261 0.64162-0.73261s0.0917 0.36631-0.18332 0.73261l-0.73328 1.2821c3.2081 0.18315 3.3914-1.0073 3.3914-1.4652s-0.82493-0.82418-0.36663-1.0989c0.45829-0.27473 0.82493-0.0916 1.1916 0.3663 0.36664 0.45788 0.4583 0.82419 1.3749 0.45788 0 0 6.9661-2.9304 7.8827-3.2967 0.82493-0.3663 0.54995-0.73261 0.0917-1.0989-0.54996-0.45788-0.64162-1.0989-0.64162-1.8315 0-2.1063 1.2832-2.7473 3.5747-2.7473 0 0.36631-0.0917 0.73261-0.0917 1.0073 0 3.2967 5.0413 6.5019 6.3245 6.5019 0.64162 0 1.3749-0.45788 1.4666 1.5568 0 1.4652 0.36664 2.4726 0.0917 4.2125-0.27498 1.6484-0.73327 1.9231-1.7415 2.6557-1.0082 0.73261-2.0165 2.9304-2.3832 3.3883 0.4583 0.27473 0.9166 0.36631 1.2832-0.7326 0.27498-0.91577 0.64161-1.5568 1.0999-1.74-0.36664 1.0073-0.64162 2.4726-0.91659 2.9304 1.2832 0.18315 3.3914-0.91577 3.3914-1.8315s-0.73328-0.82418-0.73328-1.4652c0-0.27472 0.36664-0.54945 0.73328-0.54945 0.54996 0 0.9166 0.3663 0.9166 0.64103 0.54995-0.27473 0.91659-0.82418 0.91659-2.1978 0-0.54945 0-1.0073-0.0917-1.5568 0 0.0916 0.0917 0.18315 0.0917 0.18315 0.27498 0.36631 0.64162 0.64103 1.1916 0.64103 0.4583 0 1.0083-0.0916 1.3749-0.3663 0.4583-0.3663 0.82493-0.82418 0.91659-1.3736v-0.36631c0-0.27472-0.0917-0.54945-0.27498-0.82418-0.18331-0.27473-0.54995-0.54946-0.91659-0.64103-0.54996-0.0916-1.0999 0-1.6499 0.3663-0.4583 0.27473-0.82494 0.73261-0.9166 1.1905-0.0917-1.8315-0.27498-3.4799-0.18332-4.2125 0.0917-1.0073 0.0917-1.4652-0.18332-1.6484-0.36663-0.18315-0.73327 0.45788-1.1916 0.45788s-1.9248-1.3736-1.9248-2.7473c0-1.4652 1.5582-3.2967 1.4666-5.2198 0-0.64104 0.36664-0.91577 0.64162-0.36631 0.27498 0.64103 0.73328 1.5568 1.3749 2.2894-0.36664 2.4726 2.2915 4.8535 4.4913 3.1136-1.0999 0.18315-1.8332-0.82418-2.3832-1.8315 0.18332 0 0.36664 0.0916 0.64162 0.0916h0.36664c0.82493 1.0073 3.2997 0.91576 3.9414-1.5568-0.4583 0.54946-1.3749 0.91576-2.0165 0.82419 0.91659-0.73261 1.4666-1.9231 1.4666-3.2052 0-6.2272-7.6077-6.9598-7.6077-12.638 0-2.1062 1.8332-3.4799 3.1164-3.4799 0.4583 0 0.82494 0.18316 1.1916 0.36631-0.4583 0.45788-0.73328 1.2821-0.73328 2.1978 0.18332 4.4872 7.5161 4.3041 7.6077 6.4103 0.64162-3.5715-4.7663-2.5641-4.9496-6.9598m-19.523-17.216c0.36664-0.64104 0-1.74 1.2832-1.74 0.64161 0 1.1916 0.64103 1.9248 0.82419-1.2832 0.18315-2.3832 0.45788-3.2081 0.91576m-6.6912 13.736c0 0.3663-0.18331 0.73261-0.36663 0.91576-0.0917 0.0916-0.27498 0.18315-0.4583 0.18315-0.4583 0-0.73328-0.54946-0.73328-1.0989v-0.0916c0-0.3663 0.18332-0.73261 0.36664-0.91576 0.0917-0.0916 0.27498-0.18315 0.4583-0.18315s0.36664 0.18315 0.4583 0.27472c0.18331 0.27473 0.27497 0.54946 0.27497 0.91577m21.632 31.502c0.0917-0.3663 0.36664-0.73261 0.64162-0.91576 0.36663-0.27473 0.73327-0.3663 1.0999-0.27473 0.18332 0 0.36664 0.0916 0.54996 0.36631 0.18332 0.18315 0.0917 0.45788 0.0917 0.64103-0.0917 0.36631-0.36664 0.73261-0.64162 0.91576-0.64162 0.36631-1.3749 0.36631-1.6499-0.0916-0.18332-0.27473-0.0917-0.45788-0.0917-0.64104m-4.583-20.879c0-0.18316 0.0917-0.36631 0.27498-0.54946 0.18332-0.18315 0.4583-0.18315 0.54996-0.18315 0.36664 0 0.73327 0.18315 1.0082 0.54945 0.27498 0.27473 0.4583 0.73261 0.4583 1.0989 0 0.18315-0.0917 0.3663-0.27498 0.54945-0.18332 0.18316-0.4583 0.18316-0.54996 0.18316-0.36663 0-0.73327-0.18316-1.0082-0.54946s-0.4583-0.73261-0.4583-1.0989m-12.374-14.103c0.36664-1.0989 1.0083-3.2967 1.0083-3.2967l1.1916 0.45788c-0.36664 0.0916-0.73328 0.45788-1.0999 0.82419 0.27498 0.0916 0.73327 0.0916 1.0082-0.0916l-0.4583 1.1905c-0.0917-0.18315-0.45829-0.64103-0.73327-0.64103-0.27498 0.91576 0.36664 1.2821 0.73327 1.4652 0.73328 0.3663 1.1916 0.45788 1.3749 0.0916 0.18332-0.3663-0.27498-0.91576-0.82494-0.73261-0.0917-0.64103 0.27498-0.91576 0.64162-0.91576 0.27498 0 0.54996 0.27473 0.64161 0.64104 0-1.0073 0.36664-1.74 1.2832-2.0147 0.36664 0.91576 0.0917 1.5568-0.64162 2.2894 0.36664-0.18315 0.82494-0.0916 1.0083 0.0916 0.18332 0.3663 0.18332 0.82419-0.36664 1.0989-0.0917-0.64103-0.82494-0.64103-1.0999-0.27472-0.18332 0.3663 0.0917 0.82418 0.73328 1.1905 0.73328 0.45788 1.3749 0.18315 1.7415-0.45789-0.27498-0.0916-0.64162 0-1.0999 0.18316l0.73327-1.4652c0 0.18315 0.18332 0.54946 0.4583 0.82418 0.0917-0.3663 0.27498-0.91576 0-1.3736l1.6499 0.91576c-0.54995 0.0916-1.0082 0.45788-1.1916 0.73261 0.36664 0.18315 0.73328 0.0916 1.0082 0l-0.82493 1.3736c0-0.45788-0.18332-0.82418-0.36664-1.0073-0.36664 0.64103-0.27498 1.2821 0.4583 1.7399 0.64161 0.36631 1.0999 0.45788 1.3749 0.0916 0.27498-0.36631-0.18332-1.0073-0.73328-0.82419 0-0.64103 0.36664-0.91576 0.73328-0.91576s0.54996 0.36631 0.64162 0.82419c0.27498-1.0073 0.64161-1.5568 1.6499-1.74 0.18332 0.91576-0.27498 1.6484-1.0999 2.1062 0.36663-0.0916 0.73327-0.0916 0.91659 0.18315 0.18332 0.36631 0.0917 0.82419-0.4583 1.0073-0.0917-0.64103-0.82493-0.73261-1.0082-0.3663-0.18332 0.3663 0.0917 0.73261 0.73327 1.0989 0.36664 0.27473 1.0083 0.54946 1.6499-0.0916-0.18332-0.27473-0.73328-0.36631-1.0083-0.36631l0.73328-1.0073c0 0.36631 0.18332 0.73261 0.4583 0.91576 0.0917-0.45788 0.18331-1.0073 0.0917-1.3736l1.0082 0.73261s-1.5582 1.6484-2.2915 2.5641zm10.266 25.824c-0.4583 0.54946-1.0999 0.82419-1.5582 0.45788-0.4583-0.3663-0.4583-1.0989-0.0917-1.6484 0.36664-0.54946 1.0999-0.82418 1.5582-0.45788 0.4583 0.36631 0.4583 1.0989 0.0917 1.6484m2.9331-4.6704c-0.4583 0.54946-1.0999 0.82418-1.5582 0.45788-0.4583-0.36631-0.4583-1.0989-0.0917-1.6484 0.45829-0.54946 1.0999-0.82419 1.5582-0.45788 0.4583 0.27473 0.54996 1.0073 0.0917 1.6484"/></g></svg>