<svg xmlns="http://www.w3.org/2000/svg" viewBox="0 0 43.938 27.159" fill="#000000"><path d="M3.694 17.138c-.013-.172-.068-1.004-.955-1.004-1.241 0-1.874 1.501-1.874 2.412 0 .812.341 1.328 1.079 1.328.701 0 1.136-.44 1.434-.732l.105.088c-.229.272-.781.924-1.687.924-.72 0-1.626-.435-1.626-1.676 0-1.197 1.099-2.568 2.52-2.568.446 0 .825.149.968.149.179 0 .217-.075.248-.137h.13l-.229 1.235-.113-.019zM6.616 18.225c0 .763-.85 1.886-1.799 1.886-.658 0-.937-.38-.937-.895 0-.912.918-1.91 1.824-1.91.72 0 .912.509.912.919zm-2.215 1.179c0 .352.186.574.496.574.707 0 1.198-1.283 1.198-1.948 0-.322-.137-.595-.435-.595-.694.001-1.259 1.236-1.259 1.969zM10.996 19.391l-.031.043c-.223.315-.533.664-.881.664-.261 0-.261-.217-.261-.304 0-.168.483-1.899.483-2.023 0-.093-.055-.143-.13-.143-.254 0-.701.546-.893.85-.297.472-.402.863-.583 1.564h-.465c.161-.603.589-2.129.589-2.247 0-.167-.082-.167-.136-.167-.279 0-.751.626-.918.874-.249.374-.373.782-.603 1.54h-.464c.1-.41.607-2.159.607-2.296s-.093-.149-.396-.149v-.1c.335-.062.663-.123.992-.191l.019.014-.348 1.24.014.012c.186-.304.824-1.266 1.346-1.266.236 0 .366.144.366.402 0 .087-.144.603-.23.852l.013.012c.434-.72.937-1.266 1.346-1.266.223 0 .366.168.366.415 0 .212-.502 1.874-.502 1.961 0 .105.018.124.092.124.118 0 .28-.198.516-.49l.092.075z"/><path d="M11.38 17.441l.96-.136c.019 0 .045.014.019.08l-.167.577.012.013c.148-.217.503-.67 1.011-.67.553 0 .739.367.739.812 0 .963-.994 1.992-1.849 1.992a.847.847 0 0 1-.421-.106c-.056.211-.229.895-.229 1.018 0 .198.235.198.396.198v.093h-1.27v-.098c.328 0 .365-.168.414-.367.168-.694.8-3.002.8-3.133 0-.111-.116-.186-.259-.181l-.143.007-.013-.099zm1.607.131c-.292 0-.652.285-.813.707-.155.397-.404 1.241-.404 1.483 0 .161.156.229.311.229.758 0 1.317-1.154 1.317-1.893-.001-.165-.008-.526-.411-.526zM17.038 19.421c-.373.46-.584.683-.851.683-.26 0-.26-.161-.26-.268 0-.141.03-.278.13-.656l-.012-.014c-.516.758-.843.944-1.215.944-.622 0-.64-.553-.64-.733 0-.911.949-2.071 1.774-2.071.267 0 .47.161.49.335h.013l.062-.273.018-.018.38-.044.043.018c-.019.075-.59 2.191-.59 2.384 0 .042.037.08.087.08.093 0 .218-.155.496-.429l.075.062zm-1.955.385c.659 0 1.266-1.34 1.266-1.948 0-.297-.173-.416-.354-.416-.726 0-1.284 1.366-1.284 1.924 0 .329.204.44.372.44zM20.065 19.396c-.311.415-.528.701-.863.701-.284 0-.298-.187-.298-.367 0-.148.46-1.662.46-1.911 0-.111-.038-.196-.155-.196-.297 0-.689.532-.913.879-.285.43-.366.696-.62 1.54h-.466c.192-.701.608-2.153.608-2.283 0-.093-.062-.162-.397-.162v-.1c.336-.062.671-.123 1.005-.191l.018.014-.396 1.295.012.013c.291-.458.862-1.321 1.377-1.321.286 0 .428.148.428.409 0 .267-.496 1.8-.496 1.985 0 .094.087.105.1.105.125 0 .279-.198.509-.49l.087.08zM21.623 19.404c-.243.364-.516.706-.861.706-.293 0-.293-.274-.293-.385 0-.292.489-1.831.489-2.005 0-.13-.049-.16-.391-.16v-.099c.235-.013.75-.112.994-.156l.017.014-.545 1.996c-.025.089-.1.335-.1.41 0 .043.044.093.1.093.074 0 .254-.123.509-.483l.081.069zm-.124-2.761c-.156 0-.298-.106-.298-.323 0-.218.143-.336.292-.336.204 0 .31.205.31.342-.001.123-.099.317-.304.317zM24.122 19.439c-.068.099-.633.671-1.252.671-.652 0-.853-.484-.853-.876 0-.887.982-1.929 1.856-1.929.316 0 .509.148.509.422 0 .489-.584.992-1.588 1.136l-.175.025c-.03.129-.061.253-.061.378 0 .421.322.563.583.563.335 0 .596-.21.905-.465l.076.075zm-1.457-.688c1.277-.261 1.308-1.005 1.308-1.055 0-.13-.061-.247-.217-.247-.335 0-.756.477-.986 1.028l-.105.274zM24.842 19.136c.044.272.144.843.646.843.348 0 .447-.297.447-.502 0-.409-.738-1.006-.738-1.482 0-.193.086-.688.744-.688.279 0 .403.105.589.105.105 0 .144-.062.174-.111h.086l-.123.862h-.099c-.031-.354-.181-.713-.585-.713-.135 0-.333.054-.333.358 0 .391.757.943.757 1.471 0 .677-.578.832-.925.832-.186 0-.435-.118-.614-.118-.088 0-.111.062-.148.129h-.1l.124-.985h.098v-.001zM33.118 16.09c-.305.056-.403.068-.509.459l-.819 2.983c-.093.36.13.379.466.41v.1h-1.693v-.1c.285-.036.514-.062.625-.459l.403-1.465h-1.768l-.409 1.514c-.081.349.101.366.422.41v.1H28.31v-.1c.304-.056.397-.074.504-.459l.763-2.742c.037-.125.068-.272.068-.386 0-.21-.169-.241-.479-.266v-.099h1.532v.101zM35.681 18.225c0 .763-.851 1.886-1.799 1.886-.658 0-.938-.38-.938-.895 0-.912.917-1.91 1.824-1.91.719 0 .913.509.913.919zm-2.215 1.179c0 .352.186.574.497.574.707 0 1.196-1.283 1.196-1.948 0-.322-.137-.595-.433-.595-.696.001-1.26 1.236-1.26 1.969zM38.763 19.371c-.39.565-.552.727-.862.727-.279 0-.291-.229-.291-.322 0-.112.124-.634.267-1.143h-.018c-.423.702-.881 1.478-1.44 1.478-.224 0-.341-.094-.341-.367 0-.271.471-1.835.471-2.003 0-.18-.116-.18-.372-.18v-.087c.311-.038.621-.094.933-.168l.017.014-.565 2.25c-.017.081 0 .211.131.211.269 0 .658-.582.869-.904.305-.461.44-.851.683-1.516h.459l-.49 1.855c-.036.125-.118.397-.118.491 0 .03.008.099.075.099.118 0 .292-.217.508-.49l.084.055zM39.179 19.136c.045.272.144.843.646.843.348 0 .447-.297.447-.502 0-.409-.738-1.006-.738-1.482 0-.193.086-.688.744-.688.279 0 .403.105.589.105.105 0 .144-.062.175-.111h.086l-.124.862h-.098c-.033-.354-.183-.713-.584-.713-.138 0-.336.054-.336.358 0 .391.757.943.757 1.471 0 .677-.576.832-.923.832-.188 0-.437-.118-.614-.118-.088 0-.113.062-.15.129h-.099l.123-.985h.099v-.001zM43.503 19.439c-.068.099-.633.671-1.253.671-.65 0-.85-.484-.85-.876 0-.887.979-1.929 1.854-1.929.316 0 .508.148.508.422 0 .489-.583.992-1.587 1.136l-.174.025c-.031.129-.062.253-.062.378 0 .421.322.563.583.563.335 0 .596-.21.907-.465l.074.075zm-1.457-.688c1.277-.261 1.309-1.005 1.309-1.055 0-.13-.062-.247-.216-.247-.337 0-.759.477-.988 1.028l-.105.274zM7.671 25.524H0v-.557h7.671v.557zm36.267.042h-7.671v-.558h7.671v.558zM29.721 6.771c0 3.132-3.49 5.67-7.795 5.67-4.306 0-7.796-2.538-7.796-5.67 0-3.136 3.49-5.674 7.796-5.674 4.304 0 7.795 2.538 7.795 5.674z"/><path d="M21.854.338a.337.337 0 1 1-.674 0 .337.337 0 0 1 .674 0zM14.059 5.27a.337.337 0 1 1-.675.001.337.337 0 0 1 .675-.001zM14.466 4.241a.337.337 0 1 1-.674 0 .337.337 0 0 1 .674 0zM15.122 3.308a.336.336 0 1 1-.673 0 .336.336 0 0 1 .673 0z"/><path d="M15.945 2.523a.336.336 0 1 1-.673 0 .336.336 0 0 1 .673 0zM13.877 6.376a.34.34 0 0 1-.337.341.34.34 0 0 1-.338-.341.337.337 0 0 1 .675 0zM13.877 7.486a.338.338 0 1 1-.676-.002.338.338 0 0 1 .676.002zM14.122 8.591a.337.337 0 1 1-.675.001.337.337 0 0 1 .675-.001zM14.588 9.597a.337.337 0 1 1-.674 0 .337.337 0 0 1 .674 0zM22.075 13.279a.336.336 0 1 1-.337-.336c.187 0 .337.15.337.336zM21.093 13.205a.337.337 0 1 1-.674.002.337.337 0 0 1 .674-.002zM19.939 13.033a.336.336 0 1 1-.673 0 .336.336 0 1 1 .673 0zM18.957 12.765a.337.337 0 1 1-.674 0 .337.337 0 0 1 .674 0zM17.926 12.347a.337.337 0 1 1-.674 0 .337.337 0 0 1 .674 0zM16.92 11.855a.337.337 0 1 1-.675.001.337.337 0 0 1 .675-.001zM16.11 11.218a.337.337 0 1 1-.337-.338c.186 0 .337.151.337.338zM15.276 10.481a.337.337 0 1 1-.675 0 .337.337 0 0 1 .675 0zM16.749 1.859a.337.337 0 1 1-.675 0 .337.337 0 0 1 .675 0zM17.682 1.319c0 .187-.15.337-.337.337a.336.336 0 1 1 0-.673c.186 0 .337.15.337.336zM18.761.878a.336.336 0 1 1-.673 0 .337.337 0 1 1 .673 0zM19.719.608a.337.337 0 1 1-.674 0 .337.337 0 0 1 .674 0zM20.849.411a.338.338 0 0 1-.675 0 .337.337 0 1 1 .675 0zM22.935.337a.337.337 0 1 1-.674 0 .337.337 0 0 1 .674 0zM24.015.447a.337.337 0 1 1-.675 0 .337.337 0 0 1 .675 0zM25.077.677a.336.336 0 1 1-.673.001.336.336 0 0 1 .673-.001zM26.141 1.01a.336.336 0 1 1-.673.001.336.336 0 0 1 .673-.001zM27.058 1.469a.337.337 0 1 1-.674 0 .337.337 0 0 1 .674 0zM28.08 2.052a.337.337 0 0 1-.338.336.336.336 0 1 1 0-.672c.187 0 .338.15.338.336zM28.912 2.74a.336.336 0 1 1-.674 0 .337.337 0 1 1 .674 0zM29.56 3.573a.337.337 0 1 1-.674 0 .337.337 0 0 1 .674 0zM30.185 4.512a.337.337 0 1 1-.674 0 .337.337 0 0 1 .674 0zM30.644 5.575a.338.338 0 1 1-.676-.002.338.338 0 0 1 .676.002zM30.788 6.702a.337.337 0 1 1-.674 0 .338.338 0 1 1 .674 0zM30.685 7.789a.337.337 0 1 1-.674 0 .337.337 0 0 1 .674 0zM30.288 8.915a.336.336 0 1 1-.674 0 .337.337 0 1 1 .674 0zM29.746 9.874a.336.336 0 1 1-.672 0 .336.336 0 0 1 .672 0zM29.06 10.729a.337.337 0 0 1-.338.337.335.335 0 0 1-.337-.337c0-.186.149-.336.337-.336.186 0 .338.149.338.336zM28.246 11.438a.337.337 0 1 1-.337-.339c.186 0 .337.152.337.339zM27.287 12.021a.337.337 0 1 1-.674 0 .337.337 0 0 1 .674 0zM25.328 12.875a.337.337 0 1 1-.337-.336c.187 0 .337.151.337.336zM26.349 12.5a.337.337 0 1 1-.674 0 .337.337 0 0 1 .674 0zM23.243 13.25c0 .187-.151.336-.337.336s-.336-.149-.336-.336a.336.336 0 1 1 .673 0zM24.265 13.104a.337.337 0 1 1 0 0z"/><path d="M24.032 4.654c-.047-.367-.256-2.131-1.909-2.059-2.312.102-3.299 3.345-3.181 5.289.104 1.728.806 2.795 2.181 2.734 1.307-.058 2.06-1.028 2.575-1.673l.209.177c-.394.599-1.338 2.028-3.026 2.103-1.341.059-3.084-.791-3.243-3.43-.153-2.551 1.718-5.556 4.364-5.671.832-.036 1.556.249 1.821.237.335-.015.396-.176.446-.31l.242-.01-.27 2.643-.209-.03z" fill="#000000"/><path d="M25.073 8.095h-1.318v-.093c.316-.011.37-.104.42-.267l.266-.862h-.993l-.208.672c-.028.097-.071.205-.071.297 0 .138.087.145.305.16v.093H22.24v-.093c.154-.022.264-.037.335-.267l.506-1.673a.993.993 0 0 0 .046-.201c0-.123-.046-.13-.304-.164v-.093h1.318v.093c-.232.008-.354.045-.42.267l-.225.742h.994l.195-.644s.042-.16.042-.208c0-.119-.038-.123-.304-.156v-.094h1.238v.093c-.166.022-.266.037-.336.267l-.454 1.482c-.028.099-.104.31-.104.399 0 .138.146.152.304.156v.094h.002z" fill="#000000"/></svg>