<svg height="135.156" viewBox="-80 -40 1043.701 215.156" width="883.701" xmlns="http://www.w3.org/2000/svg"><path d="m20.44 131.277v-68.897h-20.44v-27.49h20.44v-10.573c0-8.797 2.936-15.053 8.811-18.757 5.874-3.706 15.918-5.56 30.132-5.56 11.984 0 21.615.351 28.9 1.058v23.259h-13.217c-7.049 0-10.572 2.585-10.572 7.755v2.818h23.788v27.49h-23.787v68.897z"/><path d="m101.038 1.058h44.054v24.317h-44.054zm0 33.832h44.054v96.387h-44.054z"/><path d="m159.494 131.277v-96.387h42.644v11.984h.353c2.699-3.638 7.281-6.872 13.743-9.693 7.753-3.288 16.447-4.934 26.079-4.934 12.921 0 23.084 2.937 30.484 8.812 8.106 6.461 12.161 16.094 12.161 28.899v61.319h-44.054v-49.868c0-11.63-5.639-17.445-16.917-17.445-13.627 0-20.44 7.64-20.44 22.909v44.404z"/><path d="m389.311 102.382h46.872c-3.407 10.339-10.749 18.326-22.026 23.962-11.748 5.872-27.312 8.812-46.696 8.812-48.519 0-72.774-17.385-72.774-52.159 0-16.566 6.017-29.368 18.061-38.413 12.04-9.045 28.926-13.569 50.661-13.569 49.454 0 73.89 20.793 73.304 62.379h-96.918c0 4.227 1.997 7.989 5.992 11.273 4.935 4.116 11.808 6.17 20.616 6.17 10.808.002 18.443-2.819 22.908-8.455m-49.517-31.191h52.514c-.474-5.169-3.058-9.277-7.755-12.335-4.699-3.055-10.809-4.582-18.326-4.582-15.506 0-24.318 5.639-26.433 16.917"/><path d="m446.97 131.275v-130.217h44.054v44.759c7.549-9.045 20.342-13.569 38.384-13.569 15.565 0 28.301 4.112 38.206 12.336 11.199 9.163 16.804 22.202 16.804 39.12 0 16.914-5.58 29.953-16.739 39.114-9.87 8.226-22.558 12.337-38.062 12.337-18.327 0-31.541-4.695-39.647-14.097h-.353v10.217zm44.053-47.571c0 14.565 8.046 21.847 24.143 21.847 16.092 0 24.139-7.281 24.139-21.847 0-6.46-1.997-11.63-5.99-15.511-4.348-4.229-10.34-6.344-17.975-6.344-16.211.001-24.317 7.29-24.317 21.855"/><path d="m611.307 1.058c-3.799 7.514-10.49 13.312-18.617 15.928v8.389h44.056v-24.317z"/><path d="m592.689 34.89h44.055v96.387h-44.055z"/><path d="m647.832 62.38v-27.49h20.439v-31.011h44.054v31.011h23.791v27.49h-23.791v34.147c0 4.244.997 6.959 2.997 8.138 1.643.942 5.048 1.416 10.22 1.416h11.808v25.401c-10.34 1.39-21.029 2.09-32.072 2.09-13.98 0-23.495-1.947-28.545-5.83-5.641-4.355-8.459-12.896-8.459-25.615v-39.747z"/><path d="m836.289 102.382h46.87c-3.407 10.339-10.747 18.326-22.026 23.962-11.748 5.872-27.311 8.812-46.693 8.812-48.521 0-72.776-17.385-72.776-52.159 0-16.566 6.019-29.368 18.062-38.413 12.042-9.045 28.929-13.569 50.661-13.569 49.454 0 73.891 20.793 73.307 62.379h-96.918c0 4.227 1.997 7.989 5.989 11.273 4.936 4.116 11.809 6.17 20.618 6.17 10.805.002 18.439-2.819 22.906-8.455m-49.518-31.191h52.513c-.472-5.169-3.058-9.277-7.753-12.335-4.698-3.055-10.812-4.582-18.326-4.582-15.508 0-24.317 5.639-26.434 16.917"/></svg>