<svg xmlns="http://www.w3.org/2000/svg" viewBox="0 4 305 21" fill="#000000"><path d="M8.50 23.14C12.86 23.14 15.57 20.63 15.57 16.88L15.57 5.94L12.04 5.94L12.04 16.56C12.04 18.75 10.77 20.14 8.50 20.14C6.22 20.14 4.95 18.75 4.95 16.56L4.95 5.94L1.41 5.94L1.41 16.88C1.41 20.64 4.16 23.14 8.50 23.14ZM18.39 22.85L21.91 22.85L21.91 11.78L21.98 11.78L29.65 22.85L32.72 22.85L32.72 5.94L29.19 5.94L29.19 16.93L29.12 16.93L21.48 5.94L18.39 5.94ZM39.57 22.85L43.11 22.85L43.11 8.86L48.01 8.86L48.01 5.94L34.69 5.94L34.69 8.86L39.57 8.86ZM49.97 22.85L61.17 22.85L61.17 19.93L53.51 19.93L53.51 15.68L60.74 15.68L60.74 12.91L53.51 12.91L53.51 8.86L61.17 8.86L61.17 5.94L49.97 5.94ZM63.73 22.85L67.27 22.85L67.27 16.72L70.10 16.72L73.25 22.85L77.26 22.85L73.70 16.20C75.57 15.46 76.76 13.61 76.76 11.38L76.76 11.36C76.76 7.96 74.51 5.94 70.71 5.94L63.73 5.94ZM67.27 14.04L67.27 8.71L70.28 8.71C72.02 8.71 73.14 9.74 73.14 11.36L73.14 11.38C73.14 13.04 72.08 14.04 70.32 14.04ZM79.09 22.85L82.62 22.85L82.62 11.78L82.69 11.78L90.35 22.85L93.42 22.85L93.42 5.94L89.89 5.94L89.89 16.93L89.82 16.93L82.18 5.94L79.09 5.94ZM96.23 22.85L107.44 22.85L107.44 19.93L99.77 19.93L99.77 15.68L107.00 15.68L107.00 12.91L99.77 12.91L99.77 8.86L107.44 8.86L107.44 5.94L96.23 5.94ZM109.99 22.85L113.53 22.85L113.53 15.73L121.15 15.73L121.15 22.85L124.69 22.85L124.69 5.94L121.15 5.94L121.15 12.81L113.53 12.81L113.53 5.94L109.99 5.94ZM127.50 22.85L130.65 22.85L130.65 11.41L130.75 11.41L135.32 22.85L137.54 22.85L142.10 11.41L142.21 11.41L142.21 22.85L145.36 22.85L145.36 5.94L141.27 5.94L136.46 18.09L136.39 18.09L131.59 5.94L127.50 5.94ZM148.17 22.85L159.38 22.85L159.38 19.93L151.71 19.93L151.71 15.68L158.94 15.68L158.94 12.91L151.71 12.91L151.71 8.86L159.38 8.86L159.38 5.94L148.17 5.94ZM161.93 22.85L165.46 22.85L165.46 11.78L165.53 11.78L173.19 22.85L176.26 22.85L176.26 5.94L172.73 5.94L172.73 16.93L172.66 16.93L165.02 5.94L161.93 5.94ZM185.25 23.14C189.52 23.14 192.07 21.08 192.07 17.84L192.07 17.82C192.07 15.16 190.48 13.72 186.94 13.02L185.14 12.66C183.20 12.27 182.33 11.65 182.33 10.58L182.33 10.57C182.33 9.36 183.42 8.53 185.24 8.52C186.98 8.52 188.20 9.33 188.38 10.65L188.39 10.79L191.73 10.79L191.72 10.57C191.55 7.61 189.15 5.65 185.24 5.65C181.49 5.65 178.79 7.69 178.79 10.78L178.79 10.79C178.79 13.34 180.48 14.93 183.82 15.60L185.60 15.95C187.70 16.38 188.53 16.96 188.53 18.11L188.53 18.12C188.53 19.41 187.30 20.26 185.34 20.26C183.41 20.26 182.02 19.44 181.79 18.13L181.77 18L178.43 18L178.44 18.19C178.64 21.30 181.23 23.14 185.25 23.14ZM194.23 22.85L197.77 22.85L197.77 16.72L200.60 16.72L203.75 22.85L207.76 22.85L204.20 16.20C206.07 15.46 207.26 13.61 207.26 11.38L207.26 11.36C207.26 7.96 205.01 5.94 201.21 5.94L194.23 5.94ZM197.77 14.04L197.77 8.71L200.78 8.71C202.52 8.71 203.64 9.74 203.64 11.36L203.64 11.38C203.64 13.04 202.58 14.04 200.82 14.04ZM209.59 22.85L220.79 22.85L220.79 19.93L213.13 19.93L213.13 15.68L220.36 15.68L220.36 12.91L213.13 12.91L213.13 8.86L220.79 8.86L220.79 5.94L209.59 5.94ZM230.96 23.14C235.68 23.14 238.46 20.36 238.46 15.75L238.46 13.80L231.15 13.80L231.15 16.44L235.02 16.44L235.01 16.69C234.91 18.77 233.33 20.14 231.02 20.14C228.21 20.14 226.43 17.98 226.43 14.31L226.43 14.30C226.43 10.71 228.11 8.65 230.89 8.65C232.80 8.65 234.15 9.60 234.71 11.24L234.76 11.36L238.31 11.36L238.28 11.19C237.71 8.02 234.95 5.65 230.88 5.65C225.93 5.65 222.82 8.92 222.82 14.33L222.82 14.34C222.82 19.85 225.91 23.14 230.96 23.14ZM240.80 22.85L244.34 22.85L244.34 5.94L240.80 5.94ZM253.32 23.14C257.59 23.14 260.14 21.08 260.14 17.84L260.14 17.82C260.14 15.16 258.55 13.72 255.01 13.02L253.22 12.66C251.27 12.27 250.41 11.65 250.41 10.58L250.41 10.57C250.41 9.36 251.50 8.53 253.31 8.52C255.06 8.52 256.28 9.33 256.45 10.65L256.46 10.79L259.80 10.79L259.79 10.57C259.63 7.61 257.23 5.65 253.31 5.65C249.56 5.65 246.87 7.69 246.87 10.78L246.87 10.79C246.87 13.34 248.55 14.93 251.89 15.60L253.68 15.95C255.77 16.38 256.61 16.96 256.61 18.11L256.61 18.12C256.61 19.41 255.38 20.26 253.42 20.26C251.48 20.26 250.09 19.44 249.87 18.13L249.84 18L246.50 18L246.52 18.19C246.71 21.30 249.30 23.14 253.32 23.14ZM266.34 22.85L269.88 22.85L269.88 8.86L274.78 8.86L274.78 5.94L261.46 5.94L261.46 8.86L266.34 8.86ZM276.74 22.85L287.94 22.85L287.94 19.93L280.28 19.93L280.28 15.68L287.51 15.68L287.51 12.91L280.28 12.91L280.28 8.86L287.94 8.86L287.94 5.94L276.74 5.94ZM290.50 22.85L294.04 22.85L294.04 16.72L296.87 16.72L300.02 22.85L304.03 22.85L300.47 16.20C302.34 15.46 303.53 13.61 303.53 11.38L303.53 11.36C303.53 7.96 301.28 5.94 297.48 5.94L290.50 5.94ZM294.04 14.04L294.04 8.71L297.05 8.71C298.79 8.71 299.91 9.74 299.91 11.36L299.91 11.38C299.91 13.04 298.85 14.04 297.09 14.04Z"/></svg>