<svg xmlns="http://www.w3.org/2000/svg" viewBox="-20 -10 358 103" fill="none"><path d="M317.59,41.6a41,41,0,0,1-40.9,40.9H41.17A41,41,0,0,1,.27,41.6v-.7A41,41,0,0,1,41.17,0H276.69a41,41,0,0,1,40.9,40.9v.7Z" fill="#000000"/><path d="M45.69,61.76v1.16H23.45V61.76h1.41a5.68,5.68,0,0,0,3-.68,2.88,2.88,0,0,0,1.26-1.56,13.83,13.83,0,0,0,.35-4.1V26.51a14.91,14.91,0,0,0-.35-4.23,3.18,3.18,0,0,0-1.4-1.48,5.52,5.52,0,0,0-2.85-.64H23.45V19H45.69v1.15H44.28a5.67,5.67,0,0,0-3,.69A3,3,0,0,0,40,22.41a13.78,13.78,0,0,0-.35,4.1V55.42A14.39,14.39,0,0,0,40,59.65a3.3,3.3,0,0,0,1.41,1.48,5.51,5.51,0,0,0,2.84.63Z" fill="#ffffff"/><path d="M76.5,39.69c4,1,6.88,2.14,8.52,3.52a9.48,9.48,0,0,1,3.52,7.62A10.19,10.19,0,0,1,84.66,59q-4.77,3.9-13.85,3.91H49.07V61.76a9.84,9.84,0,0,0,4.08-.57,3.32,3.32,0,0,0,1.5-1.49,13.87,13.87,0,0,0,.43-4.53V26.75a14,14,0,0,0-.43-4.54,3.19,3.19,0,0,0-1.52-1.49,10,10,0,0,0-4.06-.56V19h20.5q7.34,0,10.4,1.35a10.9,10.9,0,0,1,4.83,4,10.25,10.25,0,0,1,1.76,5.7,8.24,8.24,0,0,1-2.22,5.66q-2.24,2.49-7.84,3.95ZM65,38.86a16,16,0,0,0,6.63-1,7.66,7.66,0,0,0,3.28-3A9.25,9.25,0,0,0,76,30a9.27,9.27,0,0,0-1.13-4.82,7.16,7.16,0,0,0-3.21-2.86c-1.39-.66-3.63-1-6.71-1V38.86Zm0,2.39V57a3.66,3.66,0,0,0,.87,2.65,3.47,3.47,0,0,0,2.58.89,9.7,9.7,0,0,0,4.67-1.15A7.81,7.81,0,0,0,76.36,56a10.35,10.35,0,0,0,1.14-4.87,10.88,10.88,0,0,0-1.41-5.53,7.65,7.65,0,0,0-3.84-3.43,20,20,0,0,0-7.28-1Z" fill="#ffffff"/><path d="M113,61.76v1.16H90.79V61.76h1.42a5.71,5.71,0,0,0,3-.68,3,3,0,0,0,1.26-1.56,14,14,0,0,0,.34-4.1V26.51a15.07,15.07,0,0,0-.34-4.23,3.18,3.18,0,0,0-1.4-1.48,5.57,5.57,0,0,0-2.85-.64H90.79V19H113v1.15h-1.41a5.63,5.63,0,0,0-3,.69,3.06,3.06,0,0,0-1.29,1.56,13.92,13.92,0,0,0-.34,4.1V55.42a14.39,14.39,0,0,0,.36,4.23,3.3,3.3,0,0,0,1.41,1.48,5.47,5.47,0,0,0,2.83.63Z" fill="#ffffff"/><path d="M144.84,18l.33,14.66h-1.31a15.31,15.31,0,0,0-4.51-8.9,11.19,11.19,0,0,0-7.78-3.37,7.21,7.21,0,0,0-5.11,1.76,5.44,5.44,0,0,0-1.88,4.06,5,5,0,0,0,.67,2.59,10.91,10.91,0,0,0,2.95,3,66.17,66.17,0,0,0,6.91,3.79q7.56,3.78,10.15,7.15a12.41,12.41,0,0,1,2.55,7.71,12.61,12.61,0,0,1-4.19,9.47,14.91,14.91,0,0,1-10.65,4,17.49,17.49,0,0,1-3.83-.42,27.9,27.9,0,0,1-4.52-1.58,6.68,6.68,0,0,0-2.5-.64,3.06,3.06,0,0,0-1.74.65,4.55,4.55,0,0,0-1.49,2h-1.07V47.35h1.07q1.41,6.94,5.38,10.6a12.54,12.54,0,0,0,8.59,3.65,8,8,0,0,0,5.67-2,6,6,0,0,0,1.3-7.6,9.46,9.46,0,0,0-2.46-2.76,37.6,37.6,0,0,0-5.86-3.42,49.3,49.3,0,0,1-8.42-5,15.32,15.32,0,0,1-3.9-4.62,11.71,11.71,0,0,1-1.37-5.62,12,12,0,0,1,3.77-8.91,13.06,13.06,0,0,1,9.5-3.68,15.63,15.63,0,0,1,4,.53A19.47,19.47,0,0,1,138.76,20a8.21,8.21,0,0,0,3,1.07,1.67,1.67,0,0,0,1.3-.52,6.25,6.25,0,0,0,.89-2.53Z" fill="#ffffff"/><path d="M153.46,63.6,157.16,27c.15-1.41.23-2.5.23-3.26a3.75,3.75,0,0,0-1-2.87c-.69-.65-2-1-3.76-1l.35-1.15H169l-.34,1.15c-2.15,0-3.62.38-4.41,1.19s-1.34,2.81-1.63,6l-2.4,23.59L176.33,25q0-.66,0-1.11a3.65,3.65,0,0,0-1-2.81c-.69-.65-2.19-1.06-4.49-1.21l.25-1.15h17.34l-.35,1.15a11.46,11.46,0,0,0-4,.52,3.21,3.21,0,0,0-1.28,1.16,7.57,7.57,0,0,0-.84,2.73q-.09.56-.77,7.52T179.1,51l13.64-21.36a38.43,38.43,0,0,0,2.78-4.88,6.54,6.54,0,0,0,.57-2.38,2.1,2.1,0,0,0-.76-1.6,4.5,4.5,0,0,0-2.59-.9l.25-1.15h12.73l-.31,1.15a7.29,7.29,0,0,0-3,.85,12.44,12.44,0,0,0-3.06,2.73,66.51,66.51,0,0,0-4.17,6.18l-21.55,34h-1.16l3.48-34-21.35,34Z" fill="#ffffff"/><path d="M218.8,43.21a20.51,20.51,0,0,1-2.49,9.61,19.34,19.34,0,0,1-7,7.55,16.4,16.4,0,0,1-8.66,2.78,9.32,9.32,0,0,1-7-2.83A10.16,10.16,0,0,1,191,53a19.51,19.51,0,0,1,2.65-9.54,20.45,20.45,0,0,1,7.09-7.58,16.28,16.28,0,0,1,8.59-2.78,9,9,0,0,1,6.83,2.82,10.13,10.13,0,0,1,2.68,7.31Zm-5.11-2.27a6.68,6.68,0,0,0-1.44-4.61,4.76,4.76,0,0,0-3.71-1.6q-4.66,0-8.57,6.81a27.12,27.12,0,0,0-3.9,13.55,6.8,6.8,0,0,0,1.51,4.74,5,5,0,0,0,3.83,1.67q4.47,0,8.37-6.78a27.26,27.26,0,0,0,3.91-13.78Z" fill="#ffffff"/><path d="M222.91,34.89l10.73-1.81-4.4,15.74q5.5-9.69,10-13.54c1.7-1.46,3.08-2.2,4.15-2.2a2.16,2.16,0,0,1,1.64.63,2.55,2.55,0,0,1,.6,1.83,8.4,8.4,0,0,1-1.07,4.08,2.34,2.34,0,0,1-2.16,1.45,1.7,1.7,0,0,1-1.23-.49,2.32,2.32,0,0,1-.64-1.49,1.3,1.3,0,0,0-.28-.81.83.83,0,0,0-.6-.26,2.07,2.07,0,0,0-1,.26,11.37,11.37,0,0,0-2.47,2.53,70.79,70.79,0,0,0-5.63,8.24,24.46,24.46,0,0,0-2.25,4.83c-.88,2.47-1.38,3.95-1.51,4.45l-1,4.08H221l5.62-20.1a21.7,21.7,0,0,0,1-5.05,1.27,1.27,0,0,0-.47-1,2.45,2.45,0,0,0-1.59-.51,14.82,14.82,0,0,0-2.26.29l-.39-1.16Z" fill="#ffffff"/><path d="M261.34,16.36l-11.1,38.69a20.51,20.51,0,0,0-.81,3.54,1.24,1.24,0,0,0,.27.81.82.82,0,0,0,.67.32,1.83,1.83,0,0,0,1.16-.55,17.27,17.27,0,0,0,3.08-4.27l.91,1a22.79,22.79,0,0,1-5.22,6A5.93,5.93,0,0,1,247,63.15a2.48,2.48,0,0,1-1.89-.83,2.77,2.77,0,0,1-.76-1.92,22.9,22.9,0,0,1,1-4.8l8.81-30.43a31.65,31.65,0,0,0,1-4.29,1.6,1.6,0,0,0-.6-1.28,2.84,2.84,0,0,0-1.88-.5,16.72,16.72,0,0,0-2.26.22V18.17l10.9-1.81Z" fill="#ffffff"/><path d="M295.78,16,284.68,55a20.22,20.22,0,0,0-.9,4.17,1,1,0,0,0,.17.54.47.47,0,0,0,.36.25,1,1,0,0,0,.64-.37,21.26,21.26,0,0,0,2.34-3.82l1.06.68a21.76,21.76,0,0,1-3.68,4.94,5.32,5.32,0,0,1-3.48,1.76,1.91,1.91,0,0,1-1.51-.78,3.31,3.31,0,0,1-.65-2.19,18.31,18.31,0,0,1,.94-4.93l1.23-4.08q-5,7.28-9.13,10.06a9.8,9.8,0,0,1-5.44,1.92A6,6,0,0,1,262.05,61,8.56,8.56,0,0,1,260.1,55a20.44,20.44,0,0,1,3.22-10.3,26.7,26.7,0,0,1,8.53-8.9,14.26,14.26,0,0,1,7.67-2.75,6.5,6.5,0,0,1,3.16.72,8.58,8.58,0,0,1,2.62,2.4l3-10.77c.33-1.21.6-2.17.81-2.89a8.18,8.18,0,0,0,.38-2.16,1.5,1.5,0,0,0-.48-1.14,2.65,2.65,0,0,0-1.74-.56,21.88,21.88,0,0,0-2.45.23V17.76L295.78,16ZM283.6,39.33a4.36,4.36,0,0,0-4.55-4.6q-4.37,0-9.11,6.74t-4.73,12.9a5.22,5.22,0,0,0,1.2,3.71,3.88,3.88,0,0,0,2.9,1.28q3.81,0,9.05-7.29t5.24-12.74Z" fill="#ffffff"/></svg>