<svg fill="#000000" viewBox="40 80 480 240" xmlns="http://www.w3.org/2000/svg"><path d="m35.773 146.497h-35.773v-129.462c1.703-11.073 19.59-25.552 35.773-3.407 18.397 22.485 47.412 54.226 59.62 67.286v-78.359h35.773v127.759c-.852 12.776-15.331 27.256-35.773 6.814-19.589-22.997-49.116-54.794-59.62-68.99zm165.234-144.794v144.794h-37.476v-144.794zm134.094 138.448c-10.915 6.208-23.542 9.753-36.997 9.753-41.395 0-74.952-33.557-74.952-74.952s33.557-74.952 74.952-74.952 74.952 33.557 74.952 74.952c0 14.344-4.029 27.746-11.017 39.138l25.961 25.962-26.499 26.499zm2.182-65.2c0-21.638-17.541-39.179-39.179-39.179-21.639 0-39.18 17.541-39.18 39.179 0 21.639 17.541 39.18 39.18 39.18 21.638 0 39.179-17.541 39.179-39.18z" transform="matrix(.927835 0 0 .927835 100 122.734)"/></svg>