<svg viewBox="26.5 234.348 600.358 183.71" xmlns="http://www.w3.org/2000/svg"><path d="m241.281 360.107c-5.25 3.125-10.75 4.875-16.25 4.875-10 0-18.5-5.75-18.5-19.25v-34.375h-9.375v-10.75h9.375v-18.125h14.25v18.125h19.5v10.75h-19.625v31.75c0 6.875 2.625 9 7.125 9 3 0 6.125-1 10-2.875zm76.249-36.922v41.25h-14.375v-37.25c0-10-6-16-15.875-16-11.875.125-18.875 9-18.875 20.625v32.625h-14.375v-92.375h14.375v39.125c4.75-9.375 13.25-13.5 24.5-13.5 15.375 0 24.625 9.625 24.625 25.5m61.459 3.134c-.5-10.75-7.625-17.25-18.375-17.25-10.5 0-17.75 6.625-19.375 17.125h37.75zm12.5 10.375h-50.125c2.25 10.25 10.125 16.5 20.5 16.5 7.25 0 13.875-2.75 18.625-7.75l7.625 8.125c-6.5 7.125-15.875 11.25-27.375 11.25-20.375 0-33.875-13.625-33.875-33.5 0-20 13.875-33.625 33.5-33.75 23.375 0 32.875 15.25 31.125 39.125" fill="#000000"/><path d="m420.348 292.833v7.875h17.25v10.75h-17.25v53h-14.125v-53h-8.75v-10.75h8.75v-6.5c0-15.5 11.375-22.75 22.75-22.75 5.375 0 10.75 1.5 15 4.625l-5.5 11c-2.75-2-6.125-3.125-9.125-3.125-4.875-.125-9 2.625-9 8.875m32.658 38.6c0 12.875 8.375 21.5 20.25 21.5s20.125-8.75 20.125-21.5-8.375-21.375-20.125-21.375c-11.875-.125-20.25 8.625-20.25 21.375m54.75-.25c0 19.875-14.125 33.625-34.5 33.625-20.5 0-34.625-13.75-34.625-33.625 0-20 14.125-33.625 34.625-33.625 20.5.125 34.5 13.625 34.5 33.625m24.757-19.902c4.5-9 12.5-13.75 22.875-13.75v13.75c-13.375-.75-21.75 7.125-22.875 18.375v34.625h-14.375v-66.25h14.375zm46.123 34.539v18.5h-14.25v-92.374h14.375v55.75l29.25-29.625h16.375l-24.5 25.625 26.375 40.625h-16.875l-19.375-30.375z" fill="#000000"/><path d="m100.477 303.748h6.5v-69.4h-6.5zm22.626-67.565-6.5-.875v67.5l6.5-1.25zm-32.213-.976-6.5.875v65.25l6.5 1.25zm5.235 166.67c.25-4.25.5-11.25.5-13.5s.125-2.375-.5-9.375c-.5-6.875-1.375-9.5-1.875-12.25-.375-2.75-1.25-6-2.625-10.125-1.25-4.125-2.375-6.375-4.125-10.375s-5-9.5-8-15c-2.875-5.375-5.625-11.75-6.75-18-1.25-7.125-1.125-15.375-.875-20s1-16.375 1.5-22.5c-27.75 10.875-46.875 36.375-46.875 66.5 0 37.375 30.125 68.25 68.875 72 .25.25.5-3.125.75-7.375m15.113 0c-.25-4.25-.5-11.25-.5-13.5s-.125-2.375.5-9.375c.5-6.875 1.375-9.5 1.875-12.25.375-2.75 1.25-6 2.625-10.125 1.25-4.125 2.375-6.375 4.125-10.375s5-9.5 8-15c2.875-5.375 5.625-11.75 6.75-18 1.25-7.125 1.125-15.375.875-20s-1-16.375-1.5-22.5c27.75 10.875 46.875 36.375 46.875 66.5 0 37.375-30.125 68.25-68.875 72-.25.25-.5-3.125-.75-7.375" fill="#000000"/></svg>